<svg id="Layer_1" data-name="Layer 1" xmlns="http://www.w3.org/2000/svg" viewBox="0 0 384 315.52"><defs><style>.cls-1{fill:#040404;}.cls-2{fill:#050505;}.cls-3{fill:#030303;}.cls-4{fill:#f8a051;}.cls-5{fill:#f8a154;}.cls-6{fill:#f8a052;}.cls-7{fill:#f8a153;}.cls-8{fill:#f89f50;}</style></defs><title>24-hours-delivery1</title><path class="cls-1" d="M876,432c-15.36,18.42-26.92,38.68-30.64,62.79-.76,4.91-3.44,7.2-7.32,6.42-3.69-.74-5.19-3.75-4.48-8.47,2.93-19.47,10.67-37,21.66-53.14.7-1,1.37-2.07,2-3.12,0-.07,0-.23-.14-.82h-13.9c-4.74,0-9.49.12-14.23-.07a6.07,6.07,0,0,1-6-6,5.82,5.82,0,0,1,5.95-5.93c13.73-.09,27.46,0,41.19-.06,2.91,0,4.34,2,5.9,3.86Z" transform="translate(-492 -226.99)"/><path class="cls-1" d="M571.93,261.83a142.31,142.31,0,0,0-31.09,26.36,161.4,161.4,0,0,0-12.6,16.28c-1.2,1.75-1.19,2.61.79,3.67,4.51,2.41,8.91,5,13.31,7.6,3.93,2.33,5.11,5.85,3.13,9s-5.34,3.57-9.19,1.37q-6.82-3.89-13.57-7.91c-1.41-.85-2.15-1-3,.8a147.18,147.18,0,0,0-15.29,57.81c-.11,1.92.76,1.95,2.15,1.94q7.88-.06,15.75,0c4.46,0,7.12,2.24,7.2,5.88s-2.68,6.09-7.33,6.12c-5.13,0-10.25.09-15.37,0-1.95,0-2.48.44-2.37,2.48a147.46,147.46,0,0,0,15,56.76c1,2.12,1.79,2.32,3.76,1.08,4.32-2.73,8.8-5.21,13.25-7.72,3.84-2.17,7.3-1.51,9.11,1.62s.68,6.53-3.08,8.76c-4.5,2.68-9,5.32-13.62,7.81-1.85,1-1.8,1.76-.72,3.38a149,149,0,0,0,41.65,41.53c2,1.32,2.53.71,3.48-1,2.51-4.59,5.17-9.11,7.87-13.6,2.16-3.6,5.4-4.61,8.5-2.82s3.9,5.19,1.89,8.79q-3.83,6.86-7.89,13.58c-1,1.68-1.16,2.56.95,3.62a150.37,150.37,0,0,0,55.15,15.32c3.61.31,4.36-.88,4.17-4.17-.27-4.61-.13-9.24-.05-13.87.07-4.47,2.33-7.11,6-7.15s6,2.59,6,7q.09,11.63,0,23.25c0,5.16-2.2,7.16-7.39,7.11-73.42-.69-136.84-51.94-152.62-123.33a158,158,0,0,1,114-187.12A150.45,150.45,0,0,1,648.65,227c5,0,7.17,2,7.23,6.93q.14,11.82,0,23.63c0,4.21-2.38,6.77-5.88,6.84s-6-2.57-6.09-7c-.09-5.25-.1-10.5,0-15.75,0-1.91-.43-2.61-2.48-2.49a144.43,144.43,0,0,0-57.31,15.62c-1.6.82-1.56,1.46-.74,2.83,2.68,4.49,5.26,9.05,7.84,13.61,2.3,4.08,1.63,7.53-1.74,9.35s-6.31.61-8.65-3.37C577.87,272.17,575,267.08,571.93,261.83Z" transform="translate(-492 -226.99)"/><path class="cls-2" d="M701.87,501.51c-6,0-12,.05-18,0-5.56-.07-7.8-2.4-7.36-7.89.68-8.42,4.59-15.14,11.16-20.39s13.73-9.53,20.54-14.38a14.9,14.9,0,0,0,5.89-8.39c1.5-5.35.21-10-3.88-13.59s-9.28-3.63-14.14-1.77-7.51,5.92-7.69,11.35c-.16,4.62-2.61,7.4-6.24,7.26s-5.78-2.92-5.74-7.68a24.14,24.14,0,0,1,23.48-23.89c12.61-.27,21.42,5.26,25.27,15.87,3.92,10.79.37,22.73-9.28,30-6.47,4.88-13.25,9.34-19.86,14-2.44,1.73-6,4-5.36,6.55.58,2.24,4.83.76,7.42.82,7.62.19,15.24,0,22.87.08,4.44,0,7.15,2.34,7.16,5.92s-2.78,6-7.13,6.07C714.61,501.58,708.24,501.51,701.87,501.51Z" transform="translate(-492 -226.99)"/><path class="cls-3" d="M771.69,449.52c0,6.75.13,13.49-.06,20.23-.07,2.4.69,3.08,2.93,2.8a12.26,12.26,0,0,1,3.73.08,5.87,5.87,0,0,1,5.17,6,6,6,0,0,1-5.61,5.92c-2,.22-4.78-.92-5.66.49-1,1.64-.42,4.3-.49,6.52a44.73,44.73,0,0,1-.1,4.49,6,6,0,0,1-6.15,5.4,5.87,5.87,0,0,1-5.71-5.78,64.73,64.73,0,0,1,0-8.24c.17-2.32-.56-3-2.89-2.92-8.49.15-17,0-25.47.09-3,0-5.44-.6-6.88-3.44s-.28-5,1.32-7.26q17.11-24.09,34.16-48.23c1.93-2.74,4.33-4.28,7.63-3.17,3.13,1.06,4.13,3.66,4.1,6.84C771.65,436,771.69,442.78,771.69,449.52Zm-12-1.29-.68-.36c-5.72,8.05-11.44,16.1-17.51,24.66,5.81,0,11-.09,16.2,0,2.2.06,2-1.19,2-2.61C759.68,462.72,759.7,455.47,759.7,448.23Z" transform="translate(-492 -226.99)"/><path class="cls-4" d="M656,346.67c0,11.49-.11,23,0,34.49.06,4.49-1.27,7.69-5.19,10.36-13.31,9.08-26.37,18.51-39.55,27.78-3.79,2.67-7.44,2.38-9.57-.68s-1.12-6.5,2.71-9.21c11.92-8.45,23.83-16.93,35.88-25.2a7.09,7.09,0,0,0,3.45-6.74c-.12-22-.06-44-.07-66a12,12,0,0,1,.58-4.8,5.66,5.66,0,0,1,5.88-3.75,5.45,5.45,0,0,1,5.27,4.05,16.08,16.08,0,0,1,.53,4.81C656,323.42,656,335,656,346.67Z" transform="translate(-492 -226.99)"/><path class="cls-1" d="M787,501.44c-3.47.1-6.37-4-4.77-8.36,2.37-6.42,5-12.75,7.51-19.11q9.72-24.47,19.46-48.93c1.81-4.55,5.06-6.19,8.63-4.49,3.31,1.58,4.22,4.65,2.52,8.95q-9.84,24.81-19.74,49.61c-2.34,5.9-4.73,11.78-7,17.7C792.55,499.5,790.81,501.19,787,501.44Z" transform="translate(-492 -226.99)"/><path class="cls-5" d="M807.7,384.89a6,6,0,0,1-6,5.85,6,6,0,1,1,6-5.85Z" transform="translate(-492 -226.99)"/><path class="cls-6" d="M695.18,237.92a6,6,0,0,1-11.93.46,6,6,0,0,1,5.86-6.36A6.26,6.26,0,0,1,695.18,237.92Z" transform="translate(-492 -226.99)"/><path class="cls-6" d="M763.22,277.49a6.31,6.31,0,0,1-6.06,5.94,6.22,6.22,0,0,1-6-6.34,6.07,6.07,0,0,1,6.22-5.64A6,6,0,0,1,763.22,277.49Z" transform="translate(-492 -226.99)"/><path class="cls-7" d="M781.26,302.92a5.92,5.92,0,0,1,6.12,5.7,6.38,6.38,0,0,1-6.13,6.25,6,6,0,0,1-5.82-6.06A5.71,5.71,0,0,1,781.26,302.92Z" transform="translate(-492 -226.99)"/><path class="cls-6" d="M731.85,253a6.42,6.42,0,0,1-5.75,6.24,5.92,5.92,0,0,1-6.2-6,5.68,5.68,0,0,1,5.8-5.89A5.92,5.92,0,0,1,731.85,253Z" transform="translate(-492 -226.99)"/><path class="cls-8" d="M796.59,339.58a5.83,5.83,0,0,1,5.9,5.92,6,6,0,0,1-12-.15A5.89,5.89,0,0,1,796.59,339.58Z" transform="translate(-492 -226.99)"/></svg>