<svg xmlns="http://www.w3.org/2000/svg" viewBox="0 0 504.1 299.1" stroke="#fff" stroke-width=".5" fill="none"><path d="M3.85,294.88l67-90.93,21.54,90.93m58.43,0L70.85,204l115.74,90.93-50.71-88.27-65-2.66m61.33-60.18,3.7,62.79L98.35,194.55ZM3.85,229.11l67-25.16-67-19.69,67,19.69,27.5-9.4L44.68,86.25l87.53,57.57L70.85,67,63.6,27.85,48.12,54,70.85,67m27.5,127.54L3.85,184.26l40.83-98L3.85,152.64m219.5,142.24,8.86-35.62h36l-44.86,35.62-27.2-119.66,36,84m36,0,80.88,11-54.41-80.15-26.41,69.19,26.47,35.62,54.41-24.59m-116.88-11,62.5-69.12-98.53-14.92-64-31.4L3.85,184.26m345.24,86,48.53-11-34.56-39-14,50,24.26,24.59,24.27-35.62M294.68,190.14l-3-26.47-82.3-77.42,85.3,103.89,68.38,30.15,14.79-76.47,30.36,67.46-45.11,9m-167-45.06,13.23-89-77.17,57.6M117.12,86.25h92.26l-73.5,120.36,60.27-31.39-9.56,119.66M70.85,67l39.27-53.12,7,72.36m15.09,57.58L117.12,86.25,70.85,67,44.68,86.25,48.12,54,38.79.8,63.6,27.85l46.52-14L133.5,86.21m158.23,77.42,86.12-19.85L294.68,190.1m113.53,21.18-10.55,48,67.23-16.75-56.68-31.25L449,246.46l-47,48.42-4.41-35.62-19.77-41.93V143.82m126,151.06-39-52.37L402,294.88M196.15,175.22l-47.34,53.89L70.85,204"/><path d="M274,259.26c.09,6.87-10.4,6.87-10.3,0C263.6,252.39,274.1,252.39,274,259.26Zm-36.32,0c.1,7.33-11.1,7.33-11,0C226.58,251.93,237.78,251.93,237.68,259.26Zm165.41,0c.11,7.33-11.1,7.33-11,0C392,251.93,403.21,251.93,403.09,259.26Zm-201.78-84c.1,6.87-10.4,6.87-10.3,0C190.91,168.35,201.41,168.35,201.31,175.22Zm-64-31.4c.09,6.87-10.4,6.87-10.3,0C126.93,137,137.43,137,137.33,143.82ZM76,67c.09,6.87-10.4,6.87-10.3,0C65.61,60.14,76.11,60.14,76,67Zm0,137c.09,6.87-10.4,6.87-10.3,0C65.61,197.08,76.11,197.08,76,204ZM190.6,294.85c.08,5.33-8.08,5.33-8,0C182.52,289.51,190.68,289.51,190.6,294.85Zm-50.54-88.5c.08,5.34-8.08,5.34-8,0C132,201,140.14,201,140.06,206.35Zm-37.71-11.8c.08,5.34-8.08,5.34-8,0C94.27,189.21,102.43,189.21,102.35,194.55ZM48.13,86.23c.08,5.34-8.08,5.34-8,0C40.05,80.89,48.21,80.89,48.13,86.23Zm164.45,0c.06,4.33-6.56,4.33-6.5,0S212.65,81.93,212.58,86.26Zm168.47,57.56c.06,4.33-6.56,4.33-6.5,0S381.12,139.49,381.05,143.82ZM114.69,14c.08,5.34-8.08,5.34-8,0C106.61,8.64,114.77,8.64,114.69,14ZM7.21,183.75c.07,4.67-7.07,4.67-7,0S7.32,179.08,7.21,183.75Zm76.14-24.24a2.5,2.5,0,0,1-5,0C78.35,156.18,83.4,156.18,83.35,159.51Zm52.58-73.26c0,3.33-5.05,3.33-5,0S136,82.92,135.93,86.25Zm158.28,77.17c0,3.33-5,3.33-5,0A2.5,2.5,0,0,1,294.21,163.42Zm71.69,56.93c.05,3.33-5,3.33-5,0S366,217,365.9,220.35Zm101.38,22.16c.05,3.33-5,3.33-5,0S467.33,239.18,467.28,242.51ZM298.6,190.14c.08,5.34-8.08,5.34-8,0C290.52,184.8,298.68,184.8,298.6,190.14Zm54.49,80.21c.08,5.33-8.08,5.33-8,0C345,265,353.21,265,353.09,270.35Zm59.12-59.25c.08,5.34-8.08,5.34-8,0C404.08,205.76,412.21,205.76,412.21,211.1Z" fill="#000"/><path d="M271.21,259.26c0,3.2-4.85,3.2-4.8,0S271.3,256.06,271.21,259.26Zm-36.46,0c0,3.42-5.18,3.42-5.13,0S234.8,255.84,234.75,259.26Zm165.46,0c.05,3.42-5.18,3.42-5.13,0S400.21,255.84,400.21,259.26Zm-201.65-84c.05,3.2-4.84,3.2-4.8,0S198.61,172,198.56,175.22Zm-64-31.4c0,3.2-4.85,3.2-4.8,0S134.63,140.62,134.58,143.82ZM73.26,67c0,3.2-4.85,3.2-4.8,0S73.31,63.81,73.26,67Zm0,137c0,3.2-4.85,3.2-4.8,0S73.31,200.75,73.26,204Zm115.21,90.85a1.87,1.87,0,1,1,0-.27A1.22,1.22,0,0,1,188.47,294.85Zm-50.54-88.5a1.87,1.87,0,1,1-3.73.27,1.22,1.22,0,0,1,0-.27,1.87,1.87,0,1,1,3.73-.27A1.22,1.22,0,0,1,137.93,206.35Zm-37.72-11.8a1.87,1.87,0,0,1-3.73.27,1.22,1.22,0,0,1,0-.27,1.87,1.87,0,0,1,3.73-.27A1.22,1.22,0,0,1,100.21,194.55ZM46,86.23a1.87,1.87,0,0,1-3.73.27,1.22,1.22,0,0,1,0-.27A1.87,1.87,0,0,1,46,86,1.22,1.22,0,0,1,46,86.23Zm164.85,0a1.52,1.52,0,1,1,0-.49A1.35,1.35,0,0,1,210.85,86.26Zm168.47,57.56a1.51,1.51,0,0,1-3,.35,2,2,0,0,1,0-.35,1.51,1.51,0,0,1,3-.35A2,2,0,0,1,379.32,143.82ZM112.56,14a1.87,1.87,0,0,1-3.73.27,1.22,1.22,0,0,1,0-.27,1.87,1.87,0,0,1,3.73-.27A1.22,1.22,0,0,1,112.56,14ZM5.38,183.75a1.63,1.63,0,1,1-1.63-1.63A1.63,1.63,0,0,1,5.38,183.75ZM82,159.51A1.17,1.17,0,1,1,81,158.45,1.17,1.17,0,0,1,82,159.51ZM134.6,86.25a1.17,1.17,0,1,1-1.06-1.06A1.17,1.17,0,0,1,134.6,86.25Zm158.26,77.17a1.17,1.17,0,1,1-1.06-1.06A1.17,1.17,0,0,1,292.86,163.42Zm71.71,56.93a1.17,1.17,0,1,1-1.06-1.06A1.17,1.17,0,0,1,364.57,220.35ZM466,242.51a1.17,1.17,0,1,1-1.06-1.06A1.17,1.17,0,0,1,466,242.51ZM296.47,190.14a1.87,1.87,0,0,1-3.73.27,1.22,1.22,0,0,1,0-.27,1.87,1.87,0,0,1,3.73-.27A1.22,1.22,0,0,1,296.47,190.14ZM351,270.35a1.87,1.87,0,1,1,0-.27A1.22,1.22,0,0,1,351,270.35ZM410,211.1a1.87,1.87,0,0,1-3.73.27,1.22,1.22,0,0,1,0-.27,1.87,1.87,0,0,1,3.73-.27A1.22,1.22,0,0,1,410,211.1Z" fill="#fff"/></svg>