<svg id="Layer_1" data-name="Layer 1" xmlns="http://www.w3.org/2000/svg" viewBox="0 0 360.14 384"><defs><style>.cls-1{fill:#050402;}.cls-2{fill:#fec250;}.cls-3{fill:#fed063;}.cls-4{fill:#fddf7c;}.cls-5{fill:#fc7f86;}.cls-6{fill:#e3636d;}.cls-7{fill:#050401;}.cls-8{fill:#060402;}</style></defs><title>box1</title><path class="cls-1" d="M686.25,576.75h-4.5c-.8-1.42-2.39-1.6-3.66-2.21q-84.26-40.74-168.57-81.33c-3.87-1.86-5.59-4.2-5.58-8.59q.15-99.89,0-199.76c0-4.17,1.45-6.57,5.26-8.4q76.95-37,153.75-74.17c6.32-3.06,12.9-5.63,18.79-9.54h4.5c.54,1.1,1.72,1.24,2.66,1.69q84.62,40.86,169.25,81.63c4.1,2,5.93,4.43,5.92,9.17q-.2,99.51,0,199c0,4.52-1.56,7.06-5.59,9q-73.58,35.34-147,70.91C703,568.25,694.29,571.84,686.25,576.75Zm59.4-240.31a4.31,4.31,0,0,0-.59-.44q-82.27-39.74-164.54-79.5a4.22,4.22,0,0,0-4.17.07c-5.69,2.83-11.44,5.53-17.16,8.3q-17.94,8.67-35.92,17.39c.87,1.34,2.16,1.59,3.26,2.12q57.87,28,115.74,55.94c5.12,2.48,5.79,3.85,4.6,9-2.76,3.3-5.84,2.91-9.38,1.19Q589,327,540.49,303.69l-25.22-12.18v2.7q0,93.17-.09,186.32c0,2.83,1.44,3.55,3.38,4.48Q590,519.47,661.37,554c5.47,2.64,11,5.24,16.43,7.85.84-1.46.52-2.73.52-3.93q0-91.85.1-183.7c0-3.16-1-4.7-3.8-5.83-3.34-1.36-6.55-3-9.8-4.63-4.29-2.1-5.08-4-3.72-8.75,2.47-3,5.37-3.1,8.66-1.42,3.54,1.81,7.25,3.3,10.7,5.25a6.55,6.55,0,0,0,6.9.11c11.45-5.7,23-11.12,34.5-16.79,3.59-1.78,6.61-1.78,9.29,1.44,1,4.86.27,6.52-4.12,8.66-11.33,5.5-22.63,11.07-34,16.38-2.55,1.18-3.39,2.52-3.39,5.29q.12,92,.07,184.09c0,4.15,0,4.16,3.88,2.3q78-37.63,156-75.2c2.52-1.21,3.26-2.59,3.26-5.34q-.13-92.24-.07-184.47v-3.63c-.85.38-1.28.56-1.7.76-15.95,7.69-31.86,15.44-47.87,23-2.24,1.06-2.27,2.54-2.26,4.47,0,20.75-.06,41.49.08,62.24,0,4.2-1.54,6.7-5.3,8.47-12.63,5.93-25.17,12.07-37.75,18.13-7,3.37-10.35,1.26-10.36-6.58q0-30.74,0-61.49C747.55,339,748.26,336.94,745.65,336.44Zm99.49-53.8c-.84-.52-1-.68-1.26-.79Q765,243.72,686.05,205.54c-1.75-.85-3-.47-4.5.26q-18,8.74-36,17.41c-2.49,1.2-5,2.44-7.86,3.87,1.24.7,2,1.16,2.72,1.53Q718.5,266.29,796.57,304a4.85,4.85,0,0,0,4.82-.23q17-8.25,34-16.44Zm-59.33,28.67c-6.64-3.21-12.34-6-18-8.73Q697.89,268.84,628,235.13c-1.4-.68-2.75-1.91-4.53-1l-31.57,15.34c1.63.83,2.72,1.39,3.82,1.93l46.46,22.45q53.88,26,107.77,52c1.29.62,2.42,1.69,4.15.84C764.38,321.62,774.68,316.68,785.81,311.31Zm3.84,40.4c0-8.87,0-17.74,0-26.61,0-2,0-3.18-2.58-1.92q-13.08,6.49-26.29,12.69c-1.7.79-2,1.89-2,3.52,0,17.75.07,35.49,0,53.24,0,2.81.84,2.8,3,1.76,8.5-4.19,17-8.36,25.61-12.37,2-.91,2.34-2.13,2.32-4.07C789.61,369.21,789.65,360.46,789.65,351.71Z" transform="translate(-503.94 -192.75)"/><path class="cls-2" d="M661.1,355c-1.36,4.74-.57,6.65,3.72,8.75,3.25,1.59,6.46,3.27,9.8,4.63,2.75,1.13,3.81,2.67,3.8,5.83q-.17,91.84-.1,183.7c0,1.2.32,2.47-.52,3.93-5.47-2.61-11-5.21-16.43-7.85Q590,519.48,518.56,485c-1.94-.93-3.39-1.65-3.38-4.48q.18-93.16.09-186.32v-2.7l25.22,12.18q48.51,23.42,97,46.85c3.54,1.72,6.62,2.11,9.38-1.19,2.06,0,3.69,1.17,5.48,1.95C655.24,352.57,657.82,354.62,661.1,355Zm-72.73,96.49c0-3.08-1.94-4.65-4.46-5.86q-23.2-11.16-46.4-22.37c-4.2-2-7.34-1.21-8.9,2.18-1.45,3.14-.06,6,4,8,5.93,2.89,11.88,5.72,17.82,8.59,9.75,4.7,19.48,9.47,29.26,14.1C584.05,458.12,588.32,455.78,588.37,451.45Zm-54.56-2.84c-3.06.39-5,1.82-5.63,4.56a5.25,5.25,0,0,0,3.09,6.2c8.49,4.18,17,8.27,25.58,12.36a4.9,4.9,0,0,0,3.64.39c2.36-.73,3.93-2.15,4.26-4.66.38-2.85-1-4.84-3.44-6q-12.43-6.06-24.92-12A15.52,15.52,0,0,0,533.81,448.61Z" transform="translate(-503.94 -192.75)"/><path class="cls-3" d="M745.65,336.44c2.61.5,1.9,2.57,1.9,4.19q0,30.75,0,61.49c0,7.84,3.35,9.95,10.36,6.58,12.58-6.06,25.12-12.2,37.75-18.13,3.76-1.77,5.33-4.27,5.3-8.47-.14-20.75-.06-41.49-.08-62.24,0-1.93,0-3.41,2.26-4.47,16-7.56,31.92-15.31,47.87-23,.42-.2.85-.38,1.7-.76v3.63q0,92.24.07,184.47c0,2.75-.74,4.13-3.26,5.34q-78,37.52-156,75.2c-3.87,1.86-3.88,1.85-3.88-2.3q0-92-.07-184.09c0-2.77.84-4.11,3.39-5.29,11.42-5.31,22.72-10.88,34-16.38,4.39-2.14,5.14-3.8,4.12-8.66C736.05,341.32,741.39,340,745.65,336.44Z" transform="translate(-503.94 -192.75)"/><path class="cls-4" d="M745.65,336.44c-4.26,3.54-9.6,4.88-14.5,7.11-2.68-3.22-5.7-3.22-9.29-1.44-11.46,5.67-23.05,11.09-34.5,16.79a6.55,6.55,0,0,1-6.9-.11c-3.45-2-7.16-3.44-10.7-5.25-3.29-1.68-6.19-1.57-8.66,1.42-3.28-.34-5.86-2.39-8.75-3.66-1.79-.78-3.42-1.95-5.48-1.95,1.19-5.18.52-6.55-4.6-9q-57.87-28-115.74-55.94c-1.1-.53-2.39-.78-3.26-2.12q18-8.73,35.92-17.39c5.72-2.77,11.47-5.47,17.16-8.3a4.22,4.22,0,0,1,4.17-.07q82.26,39.79,164.54,79.5A4.31,4.31,0,0,1,745.65,336.44Z" transform="translate(-503.94 -192.75)"/><path class="cls-4" d="M845.14,282.64l-9.76,4.73q-17,8.2-34,16.44a4.85,4.85,0,0,1-4.82.23q-78-37.8-156.16-75.43c-.76-.37-1.48-.83-2.72-1.53,2.9-1.43,5.37-2.67,7.86-3.87q18-8.7,36-17.41c1.51-.73,2.75-1.11,4.5-.26q78.88,38.22,157.83,76.31C844.11,282,844.3,282.12,845.14,282.64Z" transform="translate(-503.94 -192.75)"/><path class="cls-5" d="M785.81,311.31c-11.13,5.37-21.43,10.31-31.7,15.33-1.73.85-2.86-.22-4.15-.84q-53.9-26-107.77-52l-46.46-22.45c-1.1-.54-2.19-1.1-3.82-1.93l31.57-15.34c1.78-.86,3.13.37,4.53,1q69.88,33.71,139.75,67.45C773.47,305.33,779.17,308.1,785.81,311.31Z" transform="translate(-503.94 -192.75)"/><path class="cls-6" d="M789.65,351.71c0,8.75,0,17.5,0,26.24,0,1.94-.35,3.16-2.32,4.07-8.59,4-17.11,8.18-25.61,12.37-2.12,1-3,1.05-3-1.76.1-17.75.06-35.49,0-53.24,0-1.63.28-2.73,2-3.52q13.2-6.21,26.29-12.69c2.53-1.26,2.59-.08,2.58,1.92C789.62,334,789.65,342.84,789.65,351.71Z" transform="translate(-503.94 -192.75)"/><path class="cls-7" d="M588.37,451.45c0,4.33-4.32,6.67-8.71,4.59-9.78-4.63-19.51-9.4-29.26-14.1-5.94-2.87-11.89-5.7-17.82-8.59-4-2-5.42-4.81-4-8,1.56-3.39,4.7-4.2,8.9-2.18q23.21,11.16,46.4,22.37C586.43,446.8,588.37,448.37,588.37,451.45Z" transform="translate(-503.94 -192.75)"/><path class="cls-8" d="M533.81,448.61a15.52,15.52,0,0,1,2.58.78q12.48,6,24.92,12c2.47,1.21,3.82,3.2,3.44,6-.33,2.51-1.9,3.93-4.26,4.66a4.9,4.9,0,0,1-3.64-.39c-8.55-4.09-17.09-8.18-25.58-12.36a5.25,5.25,0,0,1-3.09-6.2C528.79,450.43,530.75,449,533.81,448.61Z" transform="translate(-503.94 -192.75)"/></svg>