<svg xmlns="http://www.w3.org/2000/svg" viewBox="0 0 32.42 40.46" fill="none" stroke="#ed1c24"><path d="M16,40H.5V17H16"/><path d="M31.8,.5H16V40H31.8Z"/><path d="M8,35V40"/><path d="M24,35V40"/><path d="M22,5h-1V6h1Z"/><path d="M27,5h-1V6h1Z"/><path d="M22,9h-1v1h1Z"/><path d="M27,9h-1v1h1Z"/><path d="M22,13h-1V14h1Z"/><path d="M27,13h-1V14h1Z"/><path d="M22,17h-1v1h1Z"/><path d="M27,17h-1v1h1Z"/><path d="M22,21h-1v1h1Z"/><path d="M27,21h-1v1h1Z"/><path d="M22,25h-1V26h1Z"/><path d="M27,25h-1V26h1Z"/><path d="M22,29h-1v1h1Z"/><path d="M27,29h-1v1h1Z"/><path d="M6,21h-1V22h1Z"/><path d="M12,21h-1V22h1Z"/><path d="M6,25h-1V26h1Z"/><path d="M12,25h-1V26h1Z"/><path d="M6,29h-1V30h1Z"/><path d="M12,29h-1V30h1Z"/></svg>