<svg xmlns="http://www.w3.org/2000/svg" viewBox="0 0 225 225"><path d="M112.37,2.5c144.57,0,149.12,222.1,0,220C-36.82,224.6-31.41,2.5,112.37,2.5Zm-16.87,137v-54m34,54v-54" fill="none" stroke="#000"/><path d="M94.62,151.35c-1.14-.65-3.91-.37-5.25-.43v11.57h1.56v-4.24C95.52,159.34,98.87,154,94.62,151.35Zm.21,3.88c-.39,1.72-2.51,1.53-3.9,1.5v-4.32C92.83,152.14,95.62,152.71,94.83,155.23Zm6.85-4.79-5,12.05h1.53l1.24-3h4.45l1.19,3h1.78l-5.06-12.05ZM100,158.11l1.72-4.22,1.65,4.22Zm15.8-7.19h1.5v7.19c0,2.45-1.27,4.51-4.33,4.51s-4.32-1.91-4.32-4.51v-7.19h1.52v7.19a2.7,2.7,0,0,0,2.8,3c1.89,0,2.83-1.1,2.83-3Zm11.14,7c1.66,4.51-4.48,5.88-7.33,3.45l.68-1.21c3.52,2.14,6.12.17,5.28-1.79-.52-1.22-4.1-.69-5.18-3.83-1.23-3.56,3.79-5.57,6.67-2.78l-.59,1.2c-2-1.9-6-.94-4.35,1.75C122.89,156.05,126.07,156,126.9,158ZM137.5,161v1.49h-7.74V150.92h7.52v1.49h-6v3.52h5.33v1.5h-5.33V161Z"/></svg>