<svg xmlns="http://www.w3.org/2000/svg" viewBox="0 0 225 225"><path d="M112.37,2.5c144.57,0,149.12,222.1,0,220C-36.82,224.6-31.41,2.5,112.37,2.5Zm-15,83,40,27-40,27Z" fill="none" stroke="#000"/><path d="M99.63,151.36c-1.29-.67-3.85-.37-5.26-.43V162.5h1.57v-4.26C100.49,159.33,103.91,154.1,99.63,151.36Zm.21,3.88c-.41,1.74-2.52,1.55-3.9,1.52v-4.34C97.81,152.15,100.63,152.72,99.84,155.24Zm32.69-4.34-4.32,7.71v3.89h-1.55l0-3.86-4.33-7.71h1.91l3.2,5.94,3.17-6Zm-14.77-.4-5.06,12h1.52l1.25-3h4.42l1.19,3.09h1.77l-5-12.05ZM116,158.12l1.74-4.22,1.62,4.22ZM105.45,161h5.92v1.49h-7.43l0-11.56h1.55Z"/></svg>