<svg xmlns="http://www.w3.org/2000/svg" viewBox="0 0 505 505" fill="#fff"><path d="M186.05,371.48c-31.42-1.89-51.52-21.1-52.37-52.61-1.21-44.6-.85-89.26,0-133.87.38-19.32,12-52.1,59.48-52.1,42,0,84-.49,125.9.84,31.09,1,51.3,21.07,52.12,52.18q1.77,66.65,0,133.36c-.81,30.75-21.2,50-51.81,52.24C308.29,372.26,208.15,372.76,186.05,371.48ZM327.89,252.36a75.31,75.31,0,1,0,0,.48ZM348.46,174a17.33,17.33,0,1,0,0,.4Z"/><path d="M252.4,203.48a49,49,0,1,0,49,49v-.2A49.07,49.07,0,0,0,252.4,203.48Z"/><path d="M252.46,0C113,0,0,113,0,252.5S113.05,505,252.46,505,505,392,505,252.5,392,0,252.46,0ZM398.31,315.38c0,78.39-58.48,82.44-81.85,82.84-42.63.72-85.3.85-127.93,0-27.8-.57-82.33-7.29-81.85-81.71-.48-42.64-.8-85.31.06-127.94.56-27.8,4.15-81.93,82.69-81.93,21.15-.51,111.84-1,135.88,1,39.77,3.31,68.15,32.12,72.15,71.84C398.46,189.76,399.1,280.4,398.31,315.38Z"/></svg>