<svg xmlns="http://www.w3.org/2000/svg" viewBox="0 0 450 380" fill="#fff"><path d="M280.6,290c1.5,2,.6,26.3.8,29,0,8.6-.4,5-.8,8.6h7.5c-1.5-2-1-13.3-1-15.8,8.8,0,5.7-.8,9,4s5.4,7,6.4,11.8h8a46,46,0,0,1-7.3-10.7c-3.6-5.7-1.7-3.8-5-6,11.2-1.4,14.7-19.6-3.7-21a110.6,110.6,0,0,0-14,0m6.6,1.4c5.4,0,14.2-1.5,14.3,9.4s-6,9.5-14.4,9.6ZM67.6,318.3c13.5,24.2,41.3,1.4,28.7-20.8-14.5-20-37.2,1.4-28.7,20.8m14.5,9c-13.4,0-13-36.3,0-36.3C97,291,97,327.2,82,327.2Zm268.8-9c13.5,24.3,41.2,1.4,28.7-20.8-14.5-20-37,1.4-28.7,20.8m14.6,9c-13.5,0-13-36.3,0-36.3C380.3,291,380.3,327.3,365.5,327.2Zm79.2-17.4c-4.3-4-13-5.8-15-11.6-2.6-12.3,19.6-8,11,4,5.8.4,10.5-4.6,5.8-9.5s-21.5-4-22.2,6.2c-1.5,8.2,14.5,12.4,19,18,8,14-20.6,14-12.8-2.3-2-1-7.7,1.4-7.4,6,4.4,15,40,5.8,21.6-10.8m-279.5-16c-4.8-4.5-19-4.4-24.4-3.6.7,3.3,1,34.4-0,37.6h7.4c-.5-1.6-.3-13.7-.4-15.8,11,2,28-6.3,17.5-18.2m-17.4,16.7c0-3.4-.7-17,.4-19.2,8.7-1.2,13.5,1.3,14,9.2.6,10.2-5.3,9.8-14.3,10ZM217.6,290h-8c7.5,12.8,14.5,22.5,10.5,37.6h7.4c-1.5-12-2.2-17,4.2-26a81.3,81.3,0,0,1,7-11.6h-3c-1.6,6-6.5,13-9.7,18.3-.7-.6-8.2-14.5-8.6-18.4M22,326.7a128.5,128.5,0,0,1-15.2,0c1.4-4,7.8-15.5,9.6-19.3h5v-1H17c3.8-7.5,7.7-15.3,7.7-16H3l-1.3,2.8c3.6-2.6,12.5-1.7,16.4-1.5-2.4,5-5,9.8-7.4,14.7H6v1h4C7.8,312.2,1.8,323.2,0,327.7H24a6.8,6.8,0,0,0,1.3-2.7C24.2,325.3,23.3,326.3,22,326.7ZM240,142.6c-2,.5-25.3.4-27.2,0,2.4-7.2,14-27.7,17.2-34.5h9.2v-2h-8c6.8-13.6,13.7-27.3,13.7-28.5H206.2l-2.4,5c2.2-.2,4.7-3,7.5-3,4.4,0,18.7-.3,22,.3-4.4,8.7-8.7,17.5-13,26.3h-8.2v2H219c-4.2,8.7-15,28.5-18,36.4h43a20.3,20.3,0,0,0,2.4-5C244,140.2,242.4,142,240,142.6ZM225.6,0c-46,0-84,37.3-84,83.2v55c0,46,38,82.5,84,82.5A82,82,0,0,0,308,139.4h0V83.2C308,37.3,271.6,0,225.6,0Zm80.8,138.3A80,80,0,0,1,227,219h-1.3c-45,0-82.3-35.6-82.3-80.7V83.2c0-44.8,37.4-81.4,82.3-81.4s80.5,36.6,80.8,81.4ZM225.6,12c-39.6,0-72,32-72,71.2v55c0,39.3,32.7,70.6,72,70.6a70,70,0,0,0,70.6-69.2V83.2C296,44,265,12,225.6,12Zm69,126.3c.6,38.5-30.6,68.6-69,68.6s-69.8-30.2-70.3-68.6V83.2a70.5,70.5,0,0,1,70.3-69.4c37.8,0,68.4,31.6,69,69.4ZM71.3,356c3.6-.4,4,4.2,1.5,1.5-11-2.5-7,21.3,2.3,13.7a1,1,0,0,1,1,.5C66,381.5,59.2,356.3,71.3,356Zm9.7,6.7c.4-0,.7,1,.7,2.4h0c1.7-2,6-2.7,7.8-.6a.8.8,0,0,1-.4,1h-0c-8-3.4-6.5,3.5-7.7,8.7-2,.3-.8-5.6-1-7s-1.3-3.7.5-4.2Zm16.7-.7c7,.4,3,7.4-2.7,6.3,1.6,10,8.2,0,9,2.6-7.6,10-15.7-6.4-6-9ZM95,367c2,1,5.5-.7,5-2.3s-5-1.3-5,2.3Zm18.3-3.5c2.4,0,4.4.6,4.6,2.3-1.6,2.3,1.8,7-0,8.4s-.8-2.2-1.3-2.8C108,381,103.2,363.5,113.3,363.4Zm-4.4,6.5c1,7,8,.8,7.4-4.5-2.4-1.6-8.4-0-7.3,4.5Zm17.5-12.7c1.3.5.4,4,.6,5.3h3.4c2.4,1.5-2.3,1.6-3.4,1.5s1,14.8-1.2,9.7c0-1.7-0-7.8-0-9.6-2-0-5.4-.2-3.2-1.7a17.3,17.3,0,0,0,3.2.3v-4.3c0-.7-0-1.2.7-1.2Zm9,.4a.7.7,0,0,1,.7.7h0a.6.6,0,0,1-.5.6c-1,.2-1-1.5-.2-1.5Zm.2,4.3c1.5-0,.6,10.6,1,11.4s-1.3.7-1.4-.3-1-11.3.4-11.2Zm6,.8c.4,0,.7,1.2,1,3.2h0c4.4-7.7,10.3-.2,9.5,6-.2,4.4-2,1.8-1.3-.5-.5-12.7-9-6.8-8.4,2.3a.5.5,0,0,1-.5.3h0c-1.5-.3-.6-5.7-.7-7s-1.3-3.8.5-4.3Zm20.6.5c0,0,2.8,0,2.8,1s.4,3.4,0,4.7c.5,7.7-1,14.4-8.4,9.5,0-.3,0-.4-0-.4s.3-.6.8-.7c4.8,3,6.6.7,6.5-5h0c-8.7,8.2-11-9.4-1.5-9Zm-5,6.8c0,4,4.6,4,6,0,.6-.8.3-4.2.3-5-3-2-6.7,2.2-6.4,5Zm17-13a85,85,0,0,0,10,0h0c3,2-4,1.4-4.7,1.5.4,4,0,11.2.2,15.4-.5,1.3-1.5.5-1.4-1.4s.2-11-0-14c-3.3,0-6-.2-4-1.5Zm15.4.4a.8.8,0,0,1,.7.8.6.6,0,0,1-.5.6C188.8,359.2,188.7,357.5,189.7,357.5Zm.2,4.3c1.4-0,.6,10.6,1,11.4s-1.2.7-1.3-.3-1-11.3.4-11.2Zm5.8.7c.4,0,.7,1,1,3.2h.2c2.6-4.3,6.2-4.6,8.6,0,9.4-10.8,13.2,11.5,9.3,8.4,1.6-6.6-4.8-14.5-8.7-6.5,0,.8.3,3,.2,4s-.7,3.2-1.4,1.6c1.5-13-8.7-12-8.2,0a.5.5,0,0,1-.5.3h0c-1.5-.2-.7-5.7-.7-7.2s-1.2-3.7.4-4Zm28.5-.5c7,.4,3,7.4-2.8,6.3,1.6,10,8.2,0,9,2.6-7.7,10-15.8-6.3-6-9Zm-2.8,4.6c2,1,5.6-.6,5-2.2S221.3,363,221.4,366.6Zm14.2-12c1.5,4.5.3,10.8,1.4,18,.3,1-1.2,1.7-1.3.3.3-3-2.3-17.2-0-18.3Zm10,7.3c7,.4,3,7.4-2.7,6.3,1.6,10,8.2,0,9,2.6-7.7,10-15.8-6.3-6-9Zm-2.7,4.7c2,1,5.5-.6,5-2.2s-5-1.4-5,2Zm17.7-4c2.6-.3,5.2,1.5,3.2,2.4-1.4-1.5-6.7-1.5-6.7,1.2s7-.6,8.3,3.3c1.2,5.8-11.4,5.7-9,.3a1,1,0,0,1,1,.5h0c0,.2-0,.4-0,.6a5,5,0,0,0,3,1.6c3,.4,5.6-3.8,1.4-3.6-7,2-8.6-6.3-1.2-6.3Zm13.7,0c2.6-.3,5.2,1.5,3.2,2.4-1.5-1.5-6.8-1.5-6.8,1.2s7-.6,8.2,3.3c1.3,5.8-11.4,5.7-9,.3a.8.8,0,0,1,1,.5h0a1.3,1.3,0,0,1-0,.6c.5,1.5,2,1.6,3.2,1.6,3,.4,5.5-3.8,1.3-3.6-7,2-8.5-6.3-1-6.3Zm14.7-8,6.2.3a.7.7,0,0,1,.5,1,1,1,0,0,1-.3.5h-0l-5.8-.3c-.3,2.7,0,9,.3,8.6l4.3-.2c1.8,1.8-3,1.3-4.3,1.5,1,7.5-1.2,6.7,7,6,2.8,2-4.6,1.4-6,1.7-3.5-1.7-1.2-4.8-2.6-12a29,29,0,0,1,0-6c-0-.6-0-1,.7-1Zm14,0c1.5,4.5.3,10.8,1.4,18,.3,1-1.2,1.7-1.3.3.2-3-2.2-17.2,0-18.3Zm10,7.3c7,.4,3,7.4-2.8,6.3,1.7,10,8.3,0,9,2.6C311.3,381,303.2,364.5,312.8,362Zm-2.8,4.7c2,1,5.6-.6,5-2.2S310,363.2,310,366.7Zm19.3-3.8c0,.2,2.7.3,2.7,1a24.4,24.4,0,0,1,0,4.7c.5,7.7-1,14.4-8.4,9.4,0-.2,0-.3-0-.3s.3-.6.8-.7c5,3,6.6.7,6.5-5h-0c-8.6,8.3-11-9.3-1.3-9.2Zm-5,7c0,4,4.6,4,6,0,.6-.8.3-4.2.3-5C327.5,362.8,324,367,324.2,369.8Zm17.4-6.5c2.4,0,4.3.6,4.6,2.3-1.5,2.3,1.8,7-0,8.4s-.7-2.2-1.2-2.8c-8.3,9.8-13.4-7.7-3.2-8Zm-4.5,6.4c1,7,8,.7,7.4-4.5-2.5-1.6-8.4-0-7.3,4.5Zm14.7-7c.4,0,.7,1,1,3.2h0c4.4-7.7,10.3-.2,9.4,6-.2,4.4-2,1.8-1.2-.5-.5-12.7-9-6.8-8.3,2.3a.5.5,0,0,1-.5.3h0c-1.6-.3-.8-5.7-.8-7s-1-3.8.6-4.3Zm19,1.4c2,.3,4,1,2.4,2-5.3-3.5-10.7,9.2,2,6.3,1.2.4.4,1.5-1.3,1.4-8,2.5-11.2-7-3.2-9.7Zm13.3-2c7,.4,3,7.4-2.8,6.3,1.7,10,8.3,0,9,2.6-7.7,10-15.8-6.4-6.2-9Zm-2.8,4.8c2,1,5.7-.7,5-2.3s-5-1.4-5,2ZM327.2,221c-2.3,2-11.5,14.3-21.8,14.3H294.8a11,11,0,0,0,3-2.8c4.7-7.3-1.2-13.5-6-11.6s-3.7,8,0,8a2.3,2.3,0,0,0,2.3-1.4c.5-1-.5-2-.8-1.2a1.7,1.7,0,0,1-2,1.4H291c-1-.2-1.5-1.4-1.2-3,.8-4,6.6-2.3,7.4.4,2,6.7-4.5,10-9,10H161.5c-1.5,0-5.8-1-8-3.8a5.6,5.6,0,0,1-0-7.5c2-2.3,6.5-2.4,6.4,1.3s-3.5.3-4,1.2,2.3,3.7,4.5,1.6a4,4,0,0,0-1.7-7c-3.6-1.2-9,3.6-8,8a10.8,10.8,0,0,0,4.3,6H144.4c-11,0-21.4-14-21.4-14-9.6,9-21,14.4-26.3,14.4V237c5.3,0,17.7,5.4,25.8,14.3,2.2-2.2,11.5-14.3,21.8-14.3h10.5a12.4,12.4,0,0,0-2.8,2.8c-5,7.3,1.2,13.4,6,11.6s3.7-8-0-8a2.4,2.4,0,0,0-2.4,1.3c-.6,1,.5,2,.8,1a1.8,1.8,0,0,1,2.3-.8,1.6,1.6,0,0,1,1,2.2h0c-1,4-6.4,2.3-7.2-.3-2-6.7,4.5-10.1,9-10H288.3a12,12,0,0,1,8,3.8,5.6,5.6,0,0,1,0,7.5c-2,2.3-6.5,2.4-6.4-1.3s3.5-.3,4-1.3-2.2-3.6-4.5-1.5a4,4,0,0,0,1.6,7c5.2,1.7,9.3-3.6,8-8a10.5,10.5,0,0,0-4.4-6h10.6c11,0,21.4,14,21.4,14,9.5-9.2,20.8-14.4,26.3-14.4v-1.2C347.8,235.3,335.4,229.8,327.2,221ZM122.3,248.4a49.8,49.8,0,0,0-18.7-12.2A51.3,51.3,0,0,0,122.5,224l4,4.4c-2.2,3-8.6,7.8-8.6,7.8s7.7,5.2,8.8,7.5Zm5.6-5.8a26.3,26.3,0,0,0-7.3-6.4l7.3-6.5c2.4,1.7,6,5,9.7,6.5C132.8,238.5,128.6,242.3,128,242.6Zm194,0c-2.4-1.7-6.3-5-10-6.5,4.8-2.2,8.6-6,9.5-6.2a26,26,0,0,0,7.3,6.3Zm5.3,5.3-4-4.3c2.2-3,8.3-7.5,8.3-7.5s-7.6-5.2-8.8-7.5l4.5-4.6a48.3,48.3,0,0,0,18.7,12A50.2,50.2,0,0,0,327.3,248Z"/></svg>