<svg id="Layer_1" data-name="Layer 1" xmlns="http://www.w3.org/2000/svg" viewBox="0 0 134.9 114"><path d="M84.2,87c.5.6.2,7.9.3,8.7,0,2.6-.2,1.5-.3,2.6h2.3c-.5-.6-.3-4-.4-4.7,2.7,0,1.7-.3,2.7,1.2s1.7,2.1,2,3.5h2.4A14,14,0,0,1,91,95.1c-1.1-1.7-.5-1.1-1.5-1.8,3.4-.4,4.4-5.9-1.1-6.3Zm2,.5c1.6,0,4.2-.5,4.3,2.8s-1.8,2.8-4.4,2.9ZM20.3,95.4c4.1,7.3,12.4.5,8.6-6.2s-11.1.4-8.6,6.2m4.4,2.7c-4.1,0-4-10.9,0-10.9s4.4,10.9,0,10.9Zm80.6-2.7c4,7.3,12.4.5,8.6-6.2s-11.1.4-8.6,6.2m4.4,2.7c-4.1,0-4-10.9,0-10.9S114.1,98.2,109.7,98.1Zm19.2-8.7c-.7-3.7,5.9-2.4,3.4,1.3,1.7.1,3.1-1.4,1.7-2.9s-6.4-1.2-6.7,1.8,4.4,3.8,5.7,5.4c2.4,4.2-6.1,4.3-3.8-.7a1.9,1.9,0,0,0-2.2,1.6v.2c1.3,4.6,11.7,2.2,6.5-3.2C132.5,91.9,129.6,91.2,128.9,89.4ZM49.6,88.1c-1.4-1.4-5.7-1.3-7.3-1.1a71.1,71.1,0,0,1,0,11.3h2.2a36.9,36.9,0,0,1-.1-4.7c3.3.6,8.4-1.9,5.2-5.5m-5.2,5c0-1-.2-5.1.1-5.8,2.6-.3,4.1.4,4.2,2.8S47.1,93,44.4,93.1ZM65.3,87H62.9c2.3,3.8,4.4,6.7,3.2,11.3h2.2c-.4-3.7-.6-5.1,1.3-7.9A23.9,23.9,0,0,1,71.7,87h-1c-.4,1.8-1.9,3.8-2.9,5.4a22.7,22.7,0,0,1-2.5-5.5M6.6,98H2c.5-1.2,2.4-4.7,2.9-5.8H6.4v-.3H5.1a52.4,52.4,0,0,0,2.3-4.8H1l-.4.8c1-.8,3.7-.5,4.9-.4L3.3,91.9H1.9v.3H3.1C2.4,93.6.6,96.9,0,98.3H7.3l.4-.8C7.8,97.2,7,97.8,6.6,98Z" transform="translate(0 0)"/><path d="M72.1,42.7a56.1,56.1,0,0,1-8.2,0c.7-2.1,4.2-8.3,5.2-10.3h2.7v-.6H69.4c2-4.1,4.1-8.2,4.1-8.6H61.9l-.7,1.5c.6,0,1.4-.9,2.2-.9s5.6-.1,6.6.1l-3.9,7.9H63.6v.6h2.1c-1.2,2.6-4.5,8.5-5.4,10.9H73.2a3.7,3.7,0,0,0,.7-1.4Z" transform="translate(0 0)"/><path d="M67.7,0A25.2,25.2,0,0,0,42.5,24.9V41.5c0,13.7,11.4,24.7,25.2,24.7A24.5,24.5,0,0,0,92.4,41.9h0V24.9A24.8,24.8,0,0,0,67.9,0ZM91.9,41.5A23.9,23.9,0,0,1,68.1,65.7h-.4C54.2,65.7,43,55,43,41.5V24.9A24.8,24.8,0,0,1,67.7.5,24.3,24.3,0,0,1,91.9,24.9h0ZM67.7,3.5A21.5,21.5,0,0,0,46.1,24.9V41.5c0,11.8,9.8,21.1,21.6,21.1A21,21,0,0,0,88.9,41.9v-17A21.3,21.3,0,0,0,67.7,3.5Zm20.7,38A20.4,20.4,0,0,1,68.1,62h-.4A20.9,20.9,0,0,1,46.6,41.5V24.9A21.2,21.2,0,0,1,67.7,4.1c11.4,0,20.5,9.5,20.7,20.8Z" transform="translate(0 0)"/><path d="M21.4,106.8c1.1-.1,1.5.7.5.4-3.2-1-2.1,6.4.7,4.1.1,0,.2,0,.3.2C19.8,114.4,17.8,106.8,21.4,106.8Zm2.9,2c.2,0,.3.7.3.7a1.7,1.7,0,0,1,2.3-.2c0,.2,0,.3-.1.3-2.4-1-2.2,1.1-2.3,2.6s-.3,1.2-.3-2.1C24.2,109.7,23.8,109,24.3,108.8Zm13.6-1.7c.5.2.2,1.2.2,1.6h1.1c.7.4-.7.5-1.1.4s.5,4.4-.3,2.9-.1-2.3-.1-2.8-1.6-.1-.9-.5h.9v-1.3C37.7,107.1,37.9,107.1,37.9,107.1Zm2.8,1.4c.4,0,.2,3.2.3,3.5s-.4.2-.4-.1-.3-3.4.1-3.4Zm2.1,1.2c1.3-2.3,3.1,0,2.9,1.8s-.7.6-.4-.1c-.2-3.8-2.8-2.1-2.5.7h-.2c-.5-.1-.2-1.7-.2-2.2s-.4-1.1.1-1.2Zm6.7-.5a6.6,6.6,0,0,1,.1,1.4c.1,2.3-.4,4.3-2.6,2.9h0c0-.1.1-.2.3-.2a1.6,1.6,0,0,0,1.9-1.6h0c-2.6,2.5-3.3-2.8-.4-2.7C48.8,109,49.5,108.9,49.5,109.2ZM47.2,111c0,1.2,1.4,1.2,1.8,0s.1-1.3.1-1.5-2,.6-1.9,1.5Zm8.2-3.9c.9.6-1.3.4-1.5.4s0,3.4.1,4.7-.5.1-.4-.5-.1-3.3-.1-4.1-2.5.2-1.7-.5Zm1.5.4c-.3,0-.2-.4,0-.4A.2.2,0,1,1,56.9,107.5Zm-16.2,0c-.3,0-.2-.4,0-.4S41,107.5,40.7,107.5Zm16.3,1c.4,0,.2,3.2.3,3.4s-.4.2-.4-.1-.3-3.4.1-3.3Zm1.8.2c.1,0,.3,1,.3,1s1.8-1.4,2.5,0c2.9-3.2,4,3.5,2.9,2.5.4-2-1.5-4.3-2.7-1.9,0,.2.1.9.1,1.1s-.2,1-.4.5c.4-3.9-2.6-3.6-2.5.1h-.1c-.5,0-.2-1.7-.2-2.1s-.4-1.1.1-1.2Zm8.5-.1c2.1.1.8,2.2-.8,1.8.4,3,2.4,0,2.6.8C66.8,114.2,64.4,109.3,67.3,108.6Zm-.8,1.4c.6.2,1.6-.2,1.5-.7S66.4,108.9,66.5,110Zm-37.1-1.4c2.1.1.8,2.2-.8,1.8.4,3,2.4,0,2.6.8C28.9,114.2,26.5,109.3,29.4,108.6Zm-.8,1.4c.6.2,1.6-.2,1.5-.7S28.5,108.9,28.6,110Zm42.1-3.6c.5,1.3.1,3.2.4,5.4.1.3-.3.5-.4.1S70.1,106.7,70.7,106.4Zm3,2.2c2.1.1.9,2.2-.8,1.8.5,3,2.4,0,2.6.8C73.2,114.2,70.8,109.3,73.7,108.6Zm-.8,1.4c.6.3,1.6-.2,1.5-.7S72.8,108.9,72.9,110Zm21-1.4c2.1.1.9,2.2-.8,1.8.5,3,2.4,0,2.6.8C93.4,114.2,91,109.3,93.9,108.6Zm-.8,1.4c.6.3,1.6-.2,1.5-.7S93,108.9,93.1,110Zm-10-.7c-.7.3-1.9-.3-1.9.6s2.1-.2,2.5.9-3.4,1.7-2.7.1l.3.2h0a.7.7,0,0,0,.9.5c1.3-.2,1.1-1.2.4-1s-2.8-1.8-.3-1.9C83.1,108.7,83.8,109,83.1,109.3Zm-4,0c-.7.3-1.9-.3-1.9.6s2.1-.2,2.5.9-3.4,1.7-2.7.1l.3.2h0a.7.7,0,0,0,.9.5c1.3-.2,1.1-1.2.4-1s-2.8-1.8-.3-1.9C79.1,108.7,79.8,109,79.1,109.3Zm9.4-2.9c.2,0,.2.3.1.4H86.9a11.3,11.3,0,0,0,0,2.6h1.3c.6.6-.9.4-1.3.5.3,2.2-.3,2,2.1,1.8s-1.5.5-1.9.6-.5-1.5-.6-3.7c0-.6-.3-2.1.2-2.1Zm2.4,0c.5,1.3.1,3.2.4,5.4.1.3-.3.5-.4.1S90.3,106.7,90.9,106.4Zm8.7,2.8v1.4c.2,2.3-.3,4.3-2.5,2.8h0a.2.2,0,0,1,.2-.2c1.5.9,2,.2,2-1.5h-.1c-2.5,2.5-3.2-2.8-.4-2.8C98.8,108.9,99.6,108.9,99.6,109.2Zm-2.3,1.7c0,1.2,1.4,1.2,1.8,0s.1-1.2.1-1.5-2,.6-1.9,1.5Zm6.6-1.3c.1.5.5,2.1,0,2.6s-.3-.7-.4-.9c-2.5,3-4-1.8-1-2.8C103.1,108.3,103.8,109.1,103.9,109.6Zm-2.7,1.3c.3,2,2.4.2,2.2-1.4S100.9,109.5,101.2,110.9Zm-65.8-1.3c.1.5.5,2.1,0,2.6s-.3-.7-.4-.9c-2.5,3-4-1.8-1-2.8C34.6,108.3,35.3,109.1,35.4,109.6Zm-2.7,1.3c.3,2,2.4.2,2.2-1.4S32.4,109.5,32.7,110.9Zm73.2-1.2c1.3-2.3,3-.1,2.8,1.8s-.6.5-.4-.2c-.1-3.8-2.7-2-2.5.7,0,0-.5.3-.5-2.2,0-.2-.2-1.1.3-1.2Zm6.1.1c-1.6-1.1-3.2,2.7.6,1.8.4.2.1.4-.4.5-2.7.6-3.4-2.7-.9-2.9C111.5,109.2,112.5,109.4,112,109.8Zm3.3-1.2c2,.1.8,2.2-.9,1.9.5,3,2.5,0,2.7.7-2.3,3-4.7-1.9-1.8-2.6Zm-.9,1.4c.6.3,1.7-.2,1.5-.7S114.4,108.9,114.4,110Z" transform="translate(0 0)"/><path d="M98.2,66.3c-.7.6-3.5,4.2-6.5,4.2H88.5l.8-.8c1.5-2.2-.3-4-1.8-3.5s-1.1,2.5.1,2.4a.8.8,0,0,0,.7-.4c.1-.3-.2-.6-.3-.3a.5.5,0,0,1-.6.4h-.1q-.5-.1-.3-.9c.2-1.2,1.9-.7,2.2.1s-1.4,3-2.7,3h-38a3.2,3.2,0,0,1-2.4-1.1,1.6,1.6,0,0,1,0-2.2c.6-.7,1.9-.8,1.9.4s-1.1,0-1.2.3.7,1.1,1.3.5a1.2,1.2,0,0,0-.1-1.8c-.1-.2-.2-.2-.4-.3a1.8,1.8,0,0,0-2.3,1.4,1.7,1.7,0,0,0,0,1,2.8,2.8,0,0,0,1.2,1.8H43.3c-3.3,0-6.4-4.2-6.4-4.2-2.8,2.8-6.2,4.4-7.9,4.4v.4c1.6,0,5.3,1.6,7.8,4.2.7-.6,3.4-4.2,6.5-4.2h3.2l-.9.8c-1.4,2.2.4,4,1.8,3.5s1.2-2.5,0-2.4a.7.7,0,0,0-.7.4c-.2.3.1.6.2.3a.4.4,0,0,1,.6-.3h.1a.4.4,0,0,1,.3.6h0c-.3,1.2-1.9.7-2.2-.1s1.4-3,2.7-3H86.5a4.4,4.4,0,0,1,2.4,1.1,1.7,1.7,0,0,1,0,2.3c-.6.7-1.9.7-1.9-.4s1.1-.1,1.2-.4a.7.7,0,0,0-1.3-.4A1.2,1.2,0,0,0,87,75c.1.2.2.2.4.3a1.9,1.9,0,0,0,2.4-1.5,1.7,1.7,0,0,0,0-1A3.4,3.4,0,0,0,88.5,71h3.1C95,71,98,75.2,98,75.2c2.9-2.7,6.3-4.3,7.9-4.3v-.4C104.4,70.5,100.7,68.9,98.2,66.3ZM36.7,74.5a14.1,14.1,0,0,0-5.6-3.7,16.2,16.2,0,0,0,5.7-3.6L38,68.5l-2.6,2.3s2.3,1.6,2.6,2.3Zm1.7-1.8a7.9,7.9,0,0,0-2.2-1.9l2.2-1.9a18.1,18.1,0,0,0,2.9,1.9A29,29,0,0,0,38.4,72.7Zm58.2,0a29,29,0,0,0-2.9-1.9l2.8-1.9a7.9,7.9,0,0,0,2.2,1.9Zm1.6,1.6L97.1,73a17,17,0,0,1,2.4-2.2,14.3,14.3,0,0,1-2.6-2.3l1.4-1.3a14.6,14.6,0,0,0,5.6,3.6,14.2,14.2,0,0,0-5.7,3.6Z" transform="translate(0 0)"/></svg>