<svg xmlns="http://www.w3.org/2000/svg" viewBox="0 0 438.1 370" fill="#fff"><path d="M273.1,282.4c1.5,1.8.6,25.6.8,28.3,0,8.4-.4,4.9-.8,8.4h7.3c-1.4-2-.9-13-1-15.4,8.5,0,5.5-.8,8.7,3.9,2.1,3.9,5.3,6.9,6.3,11.5h7.8a52.3,52.3,0,0,1-7.1-10.4c-3.5-5.6-1.6-3.7-4.7-5.8,10.9-1.3,14.3-19.1-3.6-20.4a105.9,105.9,0,0,0-13.8.1m6.5,1.3c5.2,0,13.8-1.4,13.9,9.2.1,9.5-5.8,9.2-14,9.3ZM65.8,309.8c13.1,23.6,40.2,1.4,27.9-20.2-14.1-19.5-36.2,1.3-27.9,20.2m14.1,8.7c-13.1,0-12.8-35.3,0-35.3C94.4,283.2,94.3,318.5,79.9,318.5Zm261.7-8.7c13.1,23.7,40.1,1.4,27.9-20.2-14.1-19.5-36.1,1.3-27.9,20.2m14.2,8.7c-13.2,0-12.8-35.3,0-35.3C370.2,283.2,370.2,318.6,355.8,318.5Zm77.1-16.9c-4.2-3.8-12.6-5.7-14.6-11.3-2.5-12,19.1-7.9,10.8,4,5.6.3,10.2-4.5,5.6-9.3-5.2-5.4-20.9-4-21.6,6-1.4,8,14.1,12.1,18.5,17.5,7.8,13.5-20,13.7-12.4-2.3-2-1-7.5,1.4-7.2,5.9,4.2,14.7,38.9,5.6,21-10.5M160.9,286c-4.7-4.4-18.5-4.3-23.8-3.5.7,3.2,1,33.5-.1,36.6h7.2c-.5-1.6-.3-13.4-.4-15.4,10.8,2,27.4-6.1,17.1-17.7m-17,16.2c0-3.3-.6-16.6.4-18.7,8.5-1.1,13.2,1.3,13.6,9,.5,9.9-5.2,9.5-14,9.6Zm67.9-19.9-7.7.1c7.3,12.4,14.1,21.9,10.2,36.6h7.2c-1.4-11.8-2.1-16.5,4.1-25.4a78.9,78.9,0,0,1,6.8-11.3h-3c-1.5,5.8-6.3,12.6-9.4,17.8-.7-.6-8-14.1-8.4-17.9M21.3,318a135.3,135.3,0,0,1-14.8,0c1.3-3.9,7.6-15.1,9.3-18.8h4.9v-1H16.5c3.7-7.3,7.5-14.8,7.5-15.5H3l-1.3,2.7c3.5-2.5,12.2-1.7,16-1.5q-3.6,7.2-7.2,14.3H5.9v1h4C7.5,303.9,1.7,314.6,0,319H23.4a9,9,0,0,0,1.3-2.6C23.5,316.6,22.6,317.6,21.3,318Z"/><path d="M233.7,138.8c-2,.5-24.6.4-26.5,0,2.4-7,13.7-27,16.8-33.6h8.9v-2H225c6.7-13.2,13.4-26.5,13.4-27.7H200.7l-2.3,4.9c2.1-.2,4.5-3,7.3-3,4.2,0,18.2-.3,21.3.2q-6.4,12.8-12.8,25.6h-8v2h7c-4.1,8.5-14.6,27.7-17.6,35.4h41.9a16.6,16.6,0,0,0,2.3-4.7C237.6,136.4,235.9,138.1,233.7,138.8Z"/><path d="M219.6,0c-44.7,0-81.7,36.3-81.9,81v53.6c0,44.7,37.1,80.3,81.9,80.3a79.7,79.7,0,0,0,80.2-79.2h0V81C299.7,36.3,264.4,0,219.6,0Zm78.6,134.6a78,78,0,0,1-77.4,78.6h-1.2c-43.8,0-80.1-34.7-80.1-78.6V81c.1-43.7,36.4-79.3,80.1-79.3S298,37.3,298.2,81Zm-78.6-123c-38.6,0-70,31.2-70.2,69.4v53.6c0,38.3,31.8,68.7,70.2,68.7A68.1,68.1,0,0,0,288.3,136V81c-.1-38.3-30.4-69.4-68.7-69.4Zm67.1,123c.5,37.5-29.8,66.8-67.1,66.8s-68-29.4-68.5-66.8V81a68.6,68.6,0,0,1,68.5-67.6c36.8,0,66.6,30.8,67.1,67.6Z"/><path d="M69.4,346.6c3.5-.4,3.8,4.1,1.4,1.5-10.6-2.4-6.8,20.7,2.3,13.3.5-.1.7,0,1,.5C64.2,371.4,57.6,346.8,69.4,346.6Zm9.4,6.6c.4-.1.7,1,.7,2.3h.1c1.6-2.1,5.8-2.6,7.6-.6a.8.8,0,0,1-.5.9c-7.7-3.3-6.3,3.4-7.5,8.5-1.9.2-.8-5.5-.9-7,.4-.8-1.2-3.6.5-4Zm16.3-.7c6.7.4,2.8,7.2-2.7,6.1,1.6,9.7,8,0,8.7,2.5-7.4,9.8-15.3-6.2-5.9-8.6Zm-2.7,4.6c2,.9,5.4-.6,4.9-2.2-1-2.1-4.8-1.3-4.8,2.2Zm17.9-3.4c2.3,0,4.2.6,4.4,2.3-1.5,2.2,1.8,6.7-.1,8.2-.5.4-.7-2.2-1.2-2.8C105.2,370.9,100.4,353.8,110.3,353.7Zm-4.3,6.4c1,6.7,7.9.7,7.2-4.4-2.4-1.6-8.2-.1-7.1,4.4Zm17-12.4c1.3.5.4,3.9.6,5.2l3.3-.1c2.3,1.4-2.2,1.5-3.3,1.4-.1.8,1,14.4-1.2,9.5.1-1.7-.1-7.6-.1-9.4-1.9-.1-5.2-.2-3.1-1.6a20.1,20.1,0,0,0,3.1.3v-4.2c0-.7-.1-1.2.7-1.2Zm8.7.4a.7.7,0,0,1,.7.7.4.4,0,0,1,0,.1h0a.7.7,0,0,1-.5.6c-1,.2-1.1-1.5-.2-1.5Zm.2,4.2c1.4-.1.6,10.3.9,11.1-.4.8-1.2.7-1.3-.3.3-.7-1-11,.4-10.9Zm5.9.8c.4,0,.7,1.1.9,3.1h.1c4.3-7.5,10-.2,9.2,5.8-.2,4.3-2,1.8-1.2-.5-.5-12.3-8.9-6.6-8.2,2.3a.7.7,0,0,1-.5.3v.1c-1.5-.3-.6-5.6-.7-7,.4-.9-1.2-3.7.5-4.1Zm20.1.4c.1.1,2.7.1,2.7,1-.1,1.3.4,3.3.1,4.6.5,7.5-1.1,14-8.2,9.2,0-.2,0-.3-.1-.3,0-.4.3-.6.8-.7,4.7,3,6.4.7,6.3-4.9h0c-8.5,8-10.8-9.1-1.4-8.9Zm-4.9,6.7c0,4,4.5,3.9,5.9.1.6-.8.3-4.1.3-5C156.2,353.4,152.7,357.4,153,360.2Zm16.6-12.6a81.7,81.7,0,0,0,9.9.1v-.1c3,1.9-4,1.4-4.6,1.5.4,4,0,10.9.2,15-.5,1.2-1.5.4-1.4-1.4,0-2.8.2-10.8-.1-13.5-3.2,0-5.9-.2-3.9-1.5Zm15,.4a.8.8,0,0,1,.7.8.7.7,0,0,1-.5.6C183.8,349.7,183.7,348,184.6,348Zm.2,4.2c1.4-.1.6,10.3.9,11.1-.4.8-1.2.7-1.3-.3.3-.7-1-11,.4-10.9Zm5.7.7c.4,0,.7,1,.9,3.1h.1c2.6-4.2,6.1-4.5,8.4.1,9.2-10.5,12.9,11.2,9.1,8.2,1.5-6.5-4.7-14.2-8.5-6.4,0,.8.3,3,.2,3.8.1,2-.7,3.1-1.4,1.6,1.5-12.8-8.4-11.7-7.9.1a.8.8,0,0,1-.5.3h0c-1.5-.2-.7-5.6-.7-7,.4-.8-1.2-3.6.4-4Zm27.7-.5c6.7.4,2.8,7.2-2.7,6.1,1.6,9.7,8,0,8.7,2.5C216.7,370.8,208.8,354.9,218.2,352.4Zm-2.7,4.5c2,.9,5.4-.6,4.9-2.2C219.3,352.6,215.4,353.4,215.5,356.9Zm13.8-11.6c1.5,4.4.3,10.5,1.4,17.6.3,1-1.2,1.6-1.3.3.3-2.9-2.2-16.8-.1-17.8Zm9.7,7.1c6.7.4,2.8,7.2-2.7,6.1,1.6,9.7,8,0,8.7,2.5-7.5,9.8-15.4-6.1-5.9-8.6Zm-2.7,4.6c2,.9,5.4-.6,4.9-2.2-1.1-2.2-5-1.4-4.9,2.1Zm17.3-3.9c2.5-.3,5,1.4,3.1,2.3-1.4-1.5-6.5-1.5-6.5,1.2.3,3.4,6.8-.6,8,3.2,1.2,5.6-11.1,5.5-8.7.3a.8.8,0,0,1,1,.5s0,0,0,0h0a.9.9,0,0,1-.1.5c.5,1.5,1.8,1.6,3.1,1.6,3,.4,5.4-3.7,1.3-3.5-6.8,2-8.3-6.1-1.1-6.1Zm13.3,0c2.5-.3,5.1,1.4,3.1,2.3-1.4-1.5-6.6-1.5-6.6,1.2.4,3.4,6.8-.6,8,3.2,1.2,5.6-11.1,5.5-8.7.3a.8.8,0,0,1,1,.5s0,0,0,0h0a.8.8,0,0,1-.1.5c.5,1.5,1.8,1.6,3.1,1.6,3,.4,5.4-3.7,1.3-3.5-6.7,2-8.3-6.1-1.1-6.1Zm14.3-7.8,6,.3a.7.7,0,0,1,.2,1.3h-.1l-5.6-.3c-.3,2.7.1,8.8.3,8.4l4.2-.2c1.7,1.8-3,1.3-4.2,1.5.9,7.3-1.2,6.5,6.8,5.8,2.7,2-4.5,1.4-5.8,1.7-3.4-1.7-1.2-4.7-2.6-11.7a40.1,40.1,0,0,1,0-5.8c-.1-.5-.1-1,.7-1Zm13.6,0c1.5,4.4.3,10.5,1.4,17.6.3,1-1.2,1.6-1.3.3.2-2.9-2.1-16.8,0-17.8Zm9.7,7.1c6.7.4,2.8,7.2-2.7,6.1,1.6,9.7,8,0,8.7,2.5C303,370.8,295.1,354.8,304.5,352.4Zm-2.7,4.6c2,.9,5.4-.6,4.9-2.2C305.7,352.7,301.8,353.5,301.8,357Zm18.7-3.7c.1.1,2.7.2,2.7,1-.1,1.3.3,3.3,0,4.6.5,7.5-1,14-8.2,9.2,0-.2,0-.3-.1-.3,0-.4.3-.6.8-.7,4.7,3,6.4.7,6.3-4.9h-.1c-8.4,8.1-10.6-9-1.3-8.9Zm-4.9,6.7c0,4,4.5,3.9,5.9.1.6-.8.3-4.1.3-5-3-1.9-6.5,2.1-6.2,4.9Zm16.9-6.4c2.4,0,4.2.6,4.5,2.3-1.5,2.2,1.7,6.7-.1,8.2-.5.4-.7-2.2-1.2-2.8-8.1,9.6-13-7.5-3.1-7.7Zm-4.4,6.3c1,6.7,7.9.7,7.2-4.4-2.4-1.6-8.1-.1-7.1,4.4Zm14.3-6.9c.4,0,.7,1,.9,3.1h.1c4.3-7.5,10-.2,9.2,5.8-.2,4.3-2,1.8-1.2-.5-.5-12.3-8.9-6.6-8.1,2.3a.8.8,0,0,1-.5.3v.1c-1.5-.3-.7-5.6-.7-7,.5-1-1.1-3.7.5-4.1Zm18.5,1.3c2.1.3,3.9.9,2.4,2-5.2-3.4-10.4,8.9,2,6.1,1.2.4.4,1.5-1.2,1.4-7.9,2.4-10.9-6.9-3.2-9.5Zm13-1.8c6.7.4,2.8,7.2-2.7,6.1,1.6,9.7,8,0,8.7,2.5-7.5,9.7-15.4-6.2-6-8.7Zm-2.7,4.6c2,.9,5.5-.6,4.9-2.2-1.1-2.2-4.9-1.4-4.9,2.1Z"/><path d="M318.5,215.1c-2.2,2.1-11.2,13.9-21.2,13.9H287a11.6,11.6,0,0,0,2.8-2.7c4.6-7.1-1.2-13.1-5.9-11.3-5,1.9-3.6,7.9.1,7.8a2.5,2.5,0,0,0,2.3-1.4c.5-1-.5-1.9-.8-1.1a1.8,1.8,0,0,1-2.2,1.3c-1-.2-1.5-1.3-1.2-2.8.8-4,6.4-2.2,7.2.4,2,6.5-4.4,9.8-8.7,9.8H157.2c-1.5,0-5.7-1-7.8-3.7a5.5,5.5,0,0,1-.1-7.3c2-2.2,6.3-2.3,6.2,1.3s-3.4.3-3.9,1.2c-.8,1.3,2.3,3.6,4.4,1.5,1.4-1.3,1.9-5.6-1.6-6.8-5-1.7-8.9,3.5-7.7,7.9a10,10,0,0,0,4.2,5.9H140.5c-10.8,0-20.8-13.6-20.8-13.6-9.3,8.8-20.3,14-25.6,14v1.3c5.2,0,17.2,5.2,25.1,13.9,2.2-2.1,11.2-13.9,21.2-13.9h10.3a10.7,10.7,0,0,0-2.8,2.7c-4.7,7.1,1.2,13.1,5.9,11.3,5-1.9,3.6-7.9-.1-7.8a2.6,2.6,0,0,0-2.4,1.3c-.5,1,.5,1.9.8,1a1.7,1.7,0,1,1,3.1,1.4c-.9,3.9-6.2,2.3-7-.3-2-6.5,4.4-9.8,8.7-9.8H280.6a11.6,11.6,0,0,1,7.9,3.7,5.5,5.5,0,0,1,0,7.3c-2,2.2-6.3,2.3-6.2-1.3s3.4-.3,3.9-1.2c1-1.3-2.2-3.5-4.4-1.5-1.4,1.3-1.9,5.6,1.6,6.8,5,1.7,9-3.5,7.7-7.9a10.1,10.1,0,0,0-4.2-5.9h10.3c10.8,0,20.8,13.6,20.8,13.6,9.3-8.9,20.3-14,25.6-14v-1.2C338.6,229,326.5,223.7,318.5,215.1ZM119,241.8a47.4,47.4,0,0,0-18.2-11.9A49.3,49.3,0,0,0,119.2,218l3.9,4.3c-2.1,2.8-8.4,7.6-8.4,7.6s7.5,5.1,8.6,7.3Zm5.5-5.7a26.3,26.3,0,0,0-7.1-6.2l7.1-6.3c2.3,1.6,5.8,4.7,9.4,6.3C129.2,232.1,125.2,235.8,124.5,236.1Zm188.9,0c-2.3-1.6-6.1-4.7-9.6-6.3,4.7-2.1,8.4-5.7,9.2-6a27.5,27.5,0,0,0,7.2,6.1Zm5.2,5.2-3.8-4.2c2.1-2.8,8.1-7.3,8.1-7.3s-7.4-5.1-8.6-7.3l4.4-4.5a47.3,47.3,0,0,0,18.2,11.8A49.4,49.4,0,0,0,318.6,241.4Z"/></svg>