<svg xmlns="http://www.w3.org/2000/svg" viewBox="0 0 345 384" fill="#e3e9f5"><path fill="#694b4b" d="M99.7,26.2c2.6-1.8,2.6-3.3-.4-4.8a55.5,55.5,0,0,1-6.2-4.2c6.3-3.5,12.6-5.5,19-7.4C127.3,5.2,143,2.7,158.7,1c1-0,2,.4,2.6-.8h25.5c4.4,1.7,9,1.6,13.6,2.7C215,6.3,228,12.5,238,24.2a9.5,9.5,0,0,0,2,1.5,4,4,0,0,0,.7,2.4c8.8,13,5.4,36.2-9,45.3-1,.7-2.8,1.4-3,3.2-2.2-.5-3.6,1-5.3,2-1,.4-2,.7-3.2,1a96,96,0,0,1-26.8,5.8c-.3-1.6-1.5-1.4-2.6-1.4A50.7,50.7,0,0,1,177.4,82c-12.4-3.4-24.8-7.2-37.3-10.3-15.2-3.8-30-2.3-44.2,5-8,4-8,4-8-5A78.2,78.2,0,0,1,99.4,28.7C100,28,101,27.2,99.7,26.2Z"/><path fill="#eef1f9" d="M6,303c4.6-6.8,11.6-9.3,19.2-11,16.6-3.8,33-7.7,49.7-11.5,6.5-1.5,13-3,19.6-4.4,2.3,2.8,3.5,6.2,5,9.4,7.4,16.2,14.7,32.4,22.2,48.6,2.4,5,7.4,6.4,12.2,3.4,2.4-1.5,4.5-3.6,6.8-5.2,5-3.4,9-8,15.2-9.8-.3,3.6,1.8,6,4,8.3L156,384h-96c0-6.3.2-12.7-0-19a33.4,33.4,0,0,0-5-16.5c-3-5-7.7-8.7-12-12.6-9-8-17.6-16.4-26.8-24.2C13,308.7,10.3,304.8,6,303Z"/><path fill="#eef1f9" d="M250.6,276c8,1.2,15.5,3.4,23.2,5.3,16.7,4,33.3,8,50,11.8A25.5,25.5,0,0,1,339,303a14.3,14.3,0,0,0-2.6,1.5c-6,5.3-11.7,10.7-17.6,16-6.3,5.6-12.6,11.2-19,16.8-6.7,6-12.4,12.5-14,21.7-1.5,8.3-.4,16.6-.8,25h-19.5v-2.2c0-9-2.3-11.3-11.3-11.3-11.7,0-23.4.2-35-0S205,372.4,205.6,384h-16.5l-3.8-53.3c2.2-2.4,4.3-4.8,4-8.3a5.6,5.6,0,0,1,3.2.8c5.4,4.2,11.2,7.8,16.3,12.5,5.8,5.2,12.5,4,15.4-3,7-16,14.3-31.8,21.6-47.7C247.2,282,248.2,278.6,250.6,276Z"/><path d="M6,303c4.2,1.8,6.8,5.7,10.2,8.6,9.2,7.8,17.8,16.2,26.8,24.2,4.4,4,9,7.5,12,12.6A33.4,33.4,0,0,1,60,365c.3,6.3,0,12.7,0,19H9.8c-8.2-3.8-10-10.7-9.8-19,.3-15,0-30-44.8C.2,313.8,1.6,307.8,6,303Z"/><path d="M285,384c.3-8.3-.7-16.7.8-25,1.7-9.2,7.4-15.8,14-21.7,6.3-5.6,12.7-11,19-16.8,6-5.3,11.7-10.7,17.6-16A14.3,14.3,0,0,1,339,303c4.4,4.7,6,10.6,6,16.8.2,16.6,0,33.2,0,49.7,0,7-3.8,11.5-9.7,14.5Z"/><path fill="#5c5e6e" d="M185.2,330.7,189,384h-33l3.8-53.3Z"/><path d="M205.6,384c-.6-11.6,1.8-14,13.6-13.6s23.4,35,0c9,0,11.3,2.3,11.3,11.3V384Z"/><path fill="#efbf86" d="M223.5,78.5c1.7-1,3-2.4,5.3-2,9.4,7,14.4,17,17.8,27.7,3.3,10.4,4.6,21,5.4,32,.2,2.4.8,3.7,3.6,3.2a16.5,16.5,0,0,1,9.8,1.4c6,4.5,7.4,10.2,5.5,17.3-2.4,8.8-4.4,17.6-6.7,26.4-1.3,5.3-3.5,7.2-8.8,7.3-3,0-2.5,1.8-2.5,3.5.3,9.3-2,17.8-7.3,25.4a45.7,45.7,0,0,1-9.4,9.6A17.7,17.7,0,0,0,232,234c-1.2-.2-1.6,1-2.4,1.4l-.8.8h0a129.2,129.2,0,0,0-15,11c-9.2,7.5-19.4,11.7-31.6,10.8-4.5-.3-9-0-13.4-0a58,58,0,0,1-19-14.7c-11.3-13.7-17-29.2-17-47q0-37.3,0-74.5c-0-13.2,8.5-22.7,22.6-22.8A155.6,155.6,0,0,0,186.8,96c11-2.3,21.7-5.4,31-12C220,82.6,223,81.7,223.5,78.5Z"/><path d="M250.6,276c-2.4,2.6-3.4,6-4.8,9-7.3,15.8-14.6,31.7-21.6,47.7-3,6.8-9.7,8.2-15.4,3-5-4.6-11-8.3-16.3-12.5a5.6,5.6,0,0,0-3.2-.8c0-1.7-1.4-2.2-2.6-3-4.5-2.8-9-5.5-13.6-8.3,3.2-3.8,7.2-7,11-10.2,11.8-10.6,23.7-21,35.3-31.8,4.5-4,9.6-7.6,13.2-12.7,1-.3,2-.6,2.8-1,3.2-1,6-.4,7.8,2.4,1.8,2.5,3.3,5.3,5.2,7.7C250.7,268.8,252.6,272,250.6,276Z"/><path fill="#785651" d="M265.4,141a16.5,16.5,0,0,0-9.8-1.4c-2.8.5-3.4-.8-3.6-3.2-.8-10.8-2-21.5-5.4-32-3.4-11-8.5-20.7-17.8-27.7,0-1.8,1.8-2.5,3-3.2,14.4-9.06,18-32.3,9-45.3a4,4,0,0,1-.7-2.4c10,1.5,17,7.2,22.6,15.2,7.7,11,11,23.6,13.2,36.6a186,186,0,0,1,2.3,31.7,8.2,8.2,0,0,1-1.8,5.5C270.2,122.2,266.8,131.2,265.4,141Z"/><path fill="#e5af78" d="M232.4,256.6c-3.6,5-8.7,8.5-13.2,12.7C207.6,280,195.7,290.4,184,301c-3.7,3.3-7.7,6.4-11,10.2h-1c-2.8-2.7-5.6-5.5-8.5-8.2-8.5-7.8-17.06-15.5-25.6-23.3a83,83,0,0,0,18.5,0A86.2,86.2,0,0,0,180,274.5c17.6-6.6,32.2-17.6,44.6-31.5,1.7-2,4.3-3.6,4.2-6.7h0l.8-.8c.8-.5,1.2-1.7,2.4-1.4Q232.2,245.3,232.4,256.6Z"/><path fill="#e5ae78" d="M223.5,78.5c-.5,3-3.4,4-5.5,5.6-9.4,6.5-20,9.6-31,12a155.7,155.7,0,0,1-31.4,3c-14,0-22.7,9.6-22.6,22.8q0,37.3,0,74.5c0,17.8,5.8,33.3,17,47A58,58,0,0,0,168.8,258a2.4,2.4,0,0,1-2,.7c-12.8.4-24.5-2.4-34.7-10.7-6-5-12.3-10-19.2-14-3.6-4-8.6-6.6-12-11-5-7-8.4-14.3-8.6-23,0-1.4-.3-2.7-.3-4,0-2.7-1-4-4-4a6.8,6.8,0,0,1-6.5-5.4c-2.8-10.3-5.4-20.7-7.8-31-1.2-5.3,1-9.7,4.6-13.6,4-2,8.3-3.5,13-2,2.2.7,2-.7,2-2a70.8,70.8,0,0,1,1.6-16.7c3-14.5,10.6-25.5,24.7-31.5,9.5-4,19.3-5.3,29.5-5,15,.5,29.8,3,44.7.8a96,96,0,0,0,26.8-5.8Z"/><path fill="#5b4246" d="M193.6,85.4c-15,2.3-29.8-.3-44.7-.8-10.2-.3-20,1-29.5,5-14,6-21.6,17-24.7,31.5A70.8,70.8,0,0,0,93,137.8c0,1.2.3,2.6-2,2-4.6-1.5-8.8-0-13,2-1.6-10-4-20-10.8-28.2a5.6,5.6,0,0,1-1.2-3.4C65,86.6,69,64.5,82.4,44.6A71.5,71.5,0,0,1,99.7,26.2c1.4,1,.2,1.7-.3,2.4a78.2,78.2,0,0,0-11.6,43c.2,9,.2,9,8,5,14-7.3,29-8.7,44.2-5,12.5,3,25,7,37.3,10.3A50.7,50.7,0,0,0,191,84C192,84,193.3,83.8,193.6,85.4Z"/><path d="M138,279.8c8.5,7.7,17,15.5,25.6,23.3,3,2.7,5.7,5.5,8.5,8.2-4.5,2.8-9,5.5-13.6,8.3-1,.7-2.5,1.2-2.6,3-6,1.8-10.2,6.4-15.2,9.8-2.3,1.6-4.4,3.7-6.8,5.2-4.8,3-9.8,1.7-12.2-3.4-7.5-16.2-14.7-32.4-22.2-48.6-1.5-3.2-2.7-6.6-5-9.4-2-4-.2-7,2.3-10.3,1.7-2,3-4.5,4.6-6.8,3-4.3,4.8-4.8,9.7-2.8a8.8,8.8,0,0,0,1.4.4C120.5,265,129.4,272.2,138,279.8Z"/><path fill="#d19b6e" d="M138,279.8c-8.6-7.6-17.5-15-25.4-23.3q0-11.2.3-22.5c7,4,13,9,19.2,14,10.2,8.4,22,11.2,34.7,10.7a2.4,2.4,0,0,0,2-.7c4.5,0,9-.3,13.4,0,12,1,22.3-3.3,31.6-10.8a129.2,129.2,0,0,1,15-11c0,3.2-2.5,4.8-4.2,6.7-12.4,14-27,25-44.6,31.5a86.2,86.2,0,0,1-23.4,5.4A83,83,0,0,1,138,279.8Z"/><path fill="#525363" d="M156,322.4c0-1.7,1.5-2.2,2.6-3,4.5-2.8,9-5.5,13.6-8.3H173c4.5,2.7,9,5.5,13.6,8.3,1,.7,2.5,1.2,2.6,3,.3,3.6-1.8,6-4,8.3H160C157.7,328.4,155.6,326,156,322.4Z"/><path fill="#d19b6e" d="M229.6,235.5l-.8.8Z"/></svg>