<svg xmlns="http://www.w3.org/2000/svg" viewBox="0 0 400 400"><rect width="400" height="400" fill="#eee"/><path d="M243.3,277.7c1,1.6.4,20.5.6,22.6,0,6.7-.3,4-.6,6.7h5.8c-1.2-1.6-.8-10.4-.8-12.3,7,0,4.5-.6,7,3s4.2,5.4,5,9.2h6.2a34.2,34.2,0,0,1-5.6-8.4c-2.8-4.4-1.4-3-4-4.6,8.7-1,11.4-15.3-3-16.4a99,99,0,0,0-11,0m5,1c4.2,0,11-1,11.2,7.3s-4.7,7.4-11.2,7.5Zm-170.7,21c10.5,19,32,1,22.3-16-11.3-15.6-29,1-22.3,16m11.3,7c-10.5,0-10-28.2,0-28.2s11.6,28.2-0,28.2Zm209-7c10.5,19,32,1,22.3-16-11.3-15.6-28.8,1-22.3,16m11.3,7c-10.5,0-10-28.2,0-28.2s11.5,28.2,0,28.2Zm61.6-13.5c-3.3-3-10-4.5-11.6-9-2-9.6,15.2-6.2,8.5,3,4.5.3,8.2-3.6,4.5-7.4s-16.7-3-17.2,4.8,11.2,9.7,14.7,14c6.3,11-16,11-10-1.8-1.6-.7-6,1-5.8,4.7,3.4,11.7,31,4.5,16.8-8.4M153.5,280.8c-3.7-3.5-14.8-3.5-19-2.8.6,2.5.8,26.7,0,29.2h5.8c-.4-1.2-.3-10.7-.3-12.3,8.5,1.6,21.8-5,13.6-14M140,293.7c0-2.6-.5-13.2.4-15,6.7-1,10.5,1,10.8,7.2.5,8-4,7.6-11,7.7Zm54.3-16H188c6,10,11.3,17.5,8.2,29.3H202c-1.2-9.4-1.7-13.3,3.2-20.3a70,70,0,0,1,5.5-9h-2.4c-1.2,4.7-5,10-7.5,14.3-.5-.5-6.4-11.3-6.7-14.4m-152,28.7a116,116,0,0,1-11.8,0c1-3,6-12,7.5-15h3.8v-.8H38.2c3-6,6-12,6-12.5H27.3l-1,2.2c2.8-2,9.7-1.3,12.8-1.2-2,4-4,7.7-5.8,11.5H29.7v.8h3C31,295,26.4,303.5,25,307H43.7a5,5,0,0,0,1-2C43.8,305.2,43,306,42,306.3ZM211.7,163c-1.6.4-19.7.3-21.2,0,2-5.6,11-21.6,13.4-27h7.2v-1.5h-6.3c5.3-10.6,10.7-21.3,10.7-22.2H185.4l-2,4c1.7-.2,3.7-2.3,6-2.3s14.5-.3,17,.2c-3.4,6.8-6.8,13.6-10,20.4H190v1.6h5.4c-3.3,6.8-11.7,22.2-14,28.3h33.4a17.6,17.6,0,0,0,2-4C214.8,161.2,213.6,162.6,211.7,163Zm-11.2-111c-35.8,0-65.4,29-65.4,64.8v42.7c0,35.8,29.6,64.2,65.4,64.2a63.8,63.8,0,0,0,64-63.2h0V117C264.6,81.2,236.3,52,200.5,52Zm62.8,107.6a62.2,62.2,0,0,1-61.6,62.8h-1c-35,0-64-27.7-64-62.8V117c0-35,29-63.4,64-63.4s62.6,28.5,62.8,63.4ZM200.5,61.5c-30.8,0-56,25-56,55.4v42.7c0,30.6,25.4,55,56,55a54.5,54.5,0,0,0,55-54V117C255.3,86.4,231,61.5,200.5,61.5Zm53.7,98.2c.4,30-23.8,53.4-53.7,53.4s-54.3-23.5-54.7-53.4V117a55,55,0,0,1,54.7-54c29.4,0,53.2,24.6,53.7,54ZM80.5,329c2.8-.3,3,3.2,1,1-8.5-2-5.4,16.6,1.8,10.7a.7.7,0,0,1,.8.4C76.3,349,71,329.3,80.5,329Zm7.5,5.2c.3,0,.6.8.6,1.8h0c1.3-1.5,4.6-2,6-.4a.7.7,0,0,1-.3.8h0c-6.2-2.7-5,2.7-6,6.7-1.5.3-.6-4.3-.8-5.4s-1-3,.4-3.3Zm13-.6c5.4.3,2.3,5.8-2,5,1.2,7.8,6.4,0,7,2-6,7.7-12.2-5-4.7-7Zm-2,4c1.6.8,4.3-.5,4-1.8S99,334.8,99,337.6Zm14.2-2.7c2,0,3.5.5,3.6,1.8s1.4,5.4,0,6.5-.6-1.7-1-2.2c-6.7,7.5-10.4-6-2.6-6.2Zm-3.4,5c.8,5.4,6.2.6,5.8-3.5-2-1.3-6.6,0-5.7,3.5Zm13.6-10c1,.4.3,3,.5,4h2.6c2,1.2-1.8,1.2-2.6,1.2s.8,11.5-1,7.5v-7.5c-1.6,0-4.2-0-2.5-1.3a10,10,0,0,0,2.5.3V331c0-.5,0-1,.5-1Zm7,.3a.6.6,0,0,1,.6.5h0a.5.5,0,0,1-.4.5c-.8.2-.8-1.2-.2-1.2Zm.2,3.3c1,0,.4,8.3.8,9s-1,.5-1-.2-.8-8.8.3-8.7Zm4.6.7c.4,0,.6,1,.8,2.4h0c3.4-6,8-0,7.4,4.7s-1.5,1.4-1-.4c-.4-10-7-5.3-6.5,1.8-0,.2-.3.3-.4.2h0c-1.2-.2-.5-4.4-.6-5.4s-1-3,.4-3.3Zm16,.3s2,0,2,.8.4,2.7,0,3.7c.4,6-.7,11.2-6.5,7.4v-.3s.2-.5.6-.6c3.8,2.3,5.2.6,5-4h0c-6.8,6.4-8.6-7.3-1.2-7Zm-4,5.3c0,3,3.6,3,4.6,0,.5-.6.3-3.2.3-4-2.4-1.5-5.2,1.8-5,4Zm13.2-10a50.8,50.8,0,0,0,7.8,0h0c2.3,1.6-3,1-3.7,1.2.3,3,0,8.7.2,12-.4,1-1.2.4-1-1s.2-8.6,0-11c-2.6,0-4.7-.2-3-1.2Zm12,.3a.7.7,0,0,1,.5.7.4.4,0,0,1-.4.4c-.7.3-.8-1,0-1Zm0,3.4c1,0,.5,8.2.8,8.8s-1,.6-1-.2-.8-8.8.3-8.7Zm4.6.5c.3,0,.5.8.7,2.5h.2c2-3.3,4.8-3.6,6.7,0,7.3-8.4,10.2,9,7.2,6.5,1.3-5-3.7-11.2-6.8-5a28.5,28.5,0,0,1,.2,3c-0,.8-.5,2.5-1,1.2,1.2-10-6.8-9.3-6.4,0,0,.2-.2.3-.4.3h0c-1-.2-.5-4.5-.5-5.6s-1-3,.3-3Zm22-.4c5.5.3,2.4,5.8-2.2,5,1.3,7.8,6.4,0,7,2-6,7.7-12.2-5-4.6-7Zm-2.2,3.6c1.6.8,4.4-.5,4-1.7s-4-1-3.8,1.7Zm11-9.3c1.2,3.5.2,8.4,1,14,.2.8-1,1.3-1,.2s-1.8-13.4,0-14.2Zm7.8,5.7c5.4.3,2.3,5.7-2,5,1.2,7.7,6.3,0,7,2-6,7.8-12.3-5-4.7-7Zm-2,3.6c1.5.8,4.2-.5,4-1.7s-4-1-4,1.6Zm13.7-3c2-.2,4,1.2,2.5,2-1-1.2-5.2-1.2-5.2,1s5.5-.5,6.5,2.6-9,4.4-7,.2a.7.7,0,0,1,.7.4h0v.5a4.6,4.6,0,0,0,2.4,1.2c2.3.3,4.3-3,1-2.8-5.5,1.6-6.7-5-1-5Zm10.7,0c2-.2,4,1.2,2.5,2-1.2-1.2-5.3-1.2-5.3,1s5.4-.5,6.4,2.6-9,4.4-7,.2a.6.6,0,0,1,.7.4h0a.4.4,0,0,1,0,.5c.4,1,1.6,1.2,2.5,1.2,2.4.3,4.3-3,1-2.8-5.4,1.6-6.6-5-.7-5Zm11.4-6.2,5,.2a.7.7,0,0,1,.4.6v.2a.8.8,0,0,1-.2.4h0l-4.5-.3c-.2,2,0,7,.2,6.7h3.4c1.4,1.4-2.4,1-3.4,1,.8,6-1,5.3,5.5,4.7,2.2,1.6-3.6,1-4.7,1.3-2.7-1.3-1-3.7-2-9.3a18.5,18.5,0,0,1,0-4.7c0-.4,0-.7.5-.7Zm11,0c1.2,3.5.3,8.4,1,14,.2.8-1,1.3-1,.2s-1.7-13.4,0-14.2Zm7.8,5.7c5.4.3,2.3,5.7-2.2,5,1.3,7.7,6.5,0,7,2-6,8-12.3-5-5-7Zm-2.2,3.6c1.6.8,4.4-.5,4-1.7s-4-1-4,1.8Zm15-3c0,0,2,.2,2,.7a11.5,11.5,0,0,1,0,3.7c.4,6-.7,11.2-6.5,7.3v-.2s.2-.5.6-.6c4,2.4,5.2.6,5-4h0c-6.7,6.5-8.6-7.2-1-7Zm-4,5.4c0,3,3.6,3,4.7,0,.5-.6.2-3.3.2-4-2.4-1.5-5.2,1.7-5,4Zm13.6-5c1.8,0,3.3.5,3.6,1.8s1.4,5.5,0,6.6-.6-1.7-1-2.2c-6.4,7.6-10.4-6-2.5-6.2Zm-3.5,5c.8,5.5,6.2.6,5.7-3.5-2-1.2-6.5,0-5.6,3.5Zm11.4-5.4c.3,0,.6.8.8,2.5h0c3.4-6,8-.2,7.3,4.6s-1.6,1.4-1-.4c-.4-9.8-7-5.2-6.5,1.8-0,.2-.2.3-.4.3h0c-1.2-.3-.6-4.5-.6-5.5s-.8-3,.5-3.3Zm14.8,1c1.5.2,3,.7,2,1.5-4.2-2.7-8.4,7.2,1.5,5,1,.3.3,1.2-1,1-6.2,2-8.7-5.4-2.5-7.5Zm10.3-1.6c5.5.3,2.4,5.8-2,5,1.3,7.8,6.4,0,7,2-6,7.8-12.3-5-5-7Zm-2,3.7c1.5.8,4.4-.5,3.8-1.7s-3.8-1-3.8,1.5ZM279.5,224c-1.8,1.6-9,11.2-17,11.2h-8.3a10,10,0,0,0,2.4-2.2c3.6-5.7-1-10.5-4.7-9s-3,6.2,0,6.2a1.7,1.7,0,0,0,1.8-1c.4-.8-.4-1.6-.6-1a1.4,1.4,0,0,1-1.6,1h-.2c-.8-.2-1.2-1-1-2.4.7-3,5.2-1.8,5.8.3,1.5,5.2-3.5,7.8-7,7.8H150.6a9.6,9.6,0,0,1-6.2-3,4.4,4.4,0,0,1,0-6c1.6-1.8,5-1.8,5,1s-2.7.3-3,1,1.8,2.8,3.5,1.2a3,3,0,0,0,.4-4.4,3,3,0,0,0-1.8-1c-2.8-1-7,2.8-6.2,6.2a9,9,0,0,0,3.4,4.7h-8.3c-8.5,0-16.6-11-16.6-11-7.5,7-16.4,11.2-20.5,11.2v1.3c4,0,13.8,4.2,20,11,1.7-1.7,9-11,17-11h8.2a9.2,9.2,0,0,0-2.2,2.2c-4,5.7,1,10.4,4.7,9s3-6.2,0-6.2a2,2,0,0,0-2,1c-.4.8.4,1.5.7.8a1.4,1.4,0,0,1,1.7-.7,1.3,1.3,0,0,1,1,1.6.3.3,0,0,1-0,.2h0c-.8,3-5,1.7-5.6-.3-1.5-5.2,3.5-7.8,7-7.8h98.7a10,10,0,0,1,6.2,3,4.3,4.3,0,0,1,0,5.8c-1.6,1.8-5,2-5-1s2.7-.2,3-1-1.7-2.8-3.5-1.2a3.2,3.2,0,0,0-.4,4.4,2.8,2.8,0,0,0,1.7,1c4,1.3,7.2-2.8,6.2-6.2a8.2,8.2,0,0,0-3.4-4.7h8.2c8.6,0,16.7,11,16.7,11,7.3-7.2,16-11.2,20.4-11.2v-1C295.5,235.2,286,231,279.5,224ZM120,245.4a37,37,0,0,0-14.5-9.5,41,41,0,0,0,14.7-9.5l3,3.4c-1.7,2.3-6.7,6-6.7,6s6,4,7,5.8Zm4.4-4.5a21,21,0,0,0-5.7-5l5.7-5c2,1.3,4.7,4,7.5,5a40,40,0,0,0-7.4,5Zm151,0c-2-1.4-5-4-7.8-5,3.8-1.7,6.7-4.7,7.4-4.8a22.4,22.4,0,0,0,5.7,5Zm4,4-3-3.4c1.7-2.3,6.5-5.8,6.5-5.8s-6-4-7-5.8l3.5-3.6a37.6,37.6,0,0,0,14.6,9.3,38.7,38.7,0,0,0-14.5,9.4Z" opacity=".3"/></svg>