<svg xmlns="http://www.w3.org/2000/svg" viewBox="0 0 400 400"><rect width="400" height="400" fill="#eee"/><g opacity=".3"><path d="M242.8,277.9c1.2,1.4.5,20.4.7,22.6,0,6.7-.4,3.9-.7,6.7h5.9c-1.2-1.6-.8-10.4-.8-12.3,6.7,0,4.3-.6,6.9,3.1s4.2,5.5,5,9.2h6.3a39.5,39.5,0,0,1-5.7-8.3c-2.8-4.5-1.3-3-3.8-4.6,8.8-1.1,11.5-15.3-2.8-16.3a82.2,82.2,0,0,0-11.1.1m5.2,1c4.2,0,11.1-1.1,11.1,7.3s-4.6,7.4-11.1,7.5ZM77.2,299.8c10.5,18.8,32.1,1.1,22.3-16.2-11.3-15.5-28.9,1.1-22.3,16.2m11.3,6.9c-10.5,0-10.3-28.2,0-28.2S100,306.7,88.5,306.7Zm209-6.9c10.5,18.9,32.1,1.1,22.3-16.2-11.2-15.5-28.8,1.1-22.3,16.2m11.4,6.9c-10.6,0-10.2-28.2,0-28.2s11.5,28.3,0,28.2Zm61.6-13.5c-3.4-3-10.1-4.5-11.7-9-2-9.6,15.3-6.3,8.7,3.2,4.4.2,8.1-3.6,4.4-7.4s-16.7-3.2-17.2,4.8c-1.1,6.4,11.2,9.6,14.8,13.9,6.2,10.8-16,11-10-1.8-1.6-.8-5.9,1.1-5.7,4.7,3.3,11.8,31.1,4.5,16.8-8.4M153.2,280.8c-3.8-3.5-14.8-3.5-19-2.8.5,2.5.8,26.7-.1,29.2h5.7c-.4-1.3-.2-10.7-.3-12.3,8.7,1.6,21.9-4.9,13.7-14.1m-13.6,12.9c0-2.6-.5-13.3.3-14.9,6.8-.9,10.6,1,10.9,7.2.4,7.9-4.2,7.5-11.2,7.6Zm54.2-15.9h-6.1c5.8,9.9,11.3,17.5,8.1,29.2h5.8c-1.1-9.4-1.7-13.2,3.3-20.3a59.6,59.6,0,0,1,5.4-9h-2.4c-1.2,4.6-5,10.1-7.5,14.2-.6-.4-6.4-11.2-6.7-14.3m-152,28.6a118.1,118.1,0,0,1-11.9,0c1.1-3.1,6.1-12,7.5-15h3.9v-.8H37.8c3-5.8,6-11.8,6-12.4H27l-1,2.2c2.8-2,9.7-1.4,12.8-1.2L33,290.5H29.4v.8h3.1c-1.9,3.8-6.5,12.3-7.9,15.8H43.3a7.8,7.8,0,0,0,1.1-2C43.4,305.2,42.7,306,41.7,306.3Z"/><path d="M212.4,163.2c-1.6.4-19.6.3-21.2,0,2-5.6,11-21.6,13.5-26.9h7.1v-1.6h-6.3c5.3-10.5,10.7-21.1,10.7-22.1H186.1l-1.9,3.9c1.7-.1,3.6-2.4,5.9-2.4s14.5-.2,17,.2c-3.4,6.8-6.8,13.6-10.3,20.4h-6.3v1.6H196c-3.2,6.8-11.6,22.2-14,28.3h33.5a12.1,12.1,0,0,0,1.8-3.8C215.5,161.2,214.2,162.6,212.4,163.2Z"/><path d="M200.3,52.3c-35.7,0-65.3,29-65.4,64.7v42.8c0,35.7,29.6,64.2,65.4,64.2a63.7,63.7,0,0,0,64.1-63.3h0V117C264.3,81.3,236.1,52.3,200.3,52.3Zm62.8,107.5a62.3,62.3,0,0,1-61.8,62.8h-1c-35,0-64-27.7-64-62.8V117c.1-34.9,29.1-63.4,64-63.4S263,82.1,263.1,117ZM200.3,61.5A56.1,56.1,0,0,0,144.2,117v42.8c0,30.6,25.4,54.9,56.1,54.9a54.4,54.4,0,0,0,54.9-53.8V117c-.1-30.6-24.3-55.5-54.9-55.5Zm53.6,98.3c.4,30-23.8,53.4-53.6,53.4s-54.3-23.5-54.7-53.4V117a54.8,54.8,0,0,1,54.7-54c29.4,0,53.2,24.6,53.6,54Z"/><path d="M78.1,329.2c2.8-.3,3.1,3.3,1.1,1.2-8.4-1.9-5.4,16.5,1.9,10.6.4-.1.5,0,.8.4C74,349,68.7,329.3,78.1,329.2Zm7.5,5.3c.4-.1.6.8.6,1.8h.1c1.3-1.7,4.6-2.1,6-.5a.6.6,0,0,1-.4.7c-6.1-2.6-5,2.7-5.9,6.8-1.6.2-.7-4.4-.8-5.6s-.9-2.8.4-3.2Zm13.1-.6c5.3.3,2.2,5.7-2.2,4.9,1.3,7.7,6.4,0,7,2-6,7.8-12.3-5-4.8-6.9Zm-2.2,3.7c1.6.7,4.3-.5,3.9-1.8s-3.8-1-3.8,1.8Zm14.3-2.7c1.8,0,3.4.4,3.5,1.8s1.5,5.3-.1,6.5-.5-1.7-.9-2.2C106.7,348.6,102.9,334.9,110.8,334.9Zm-3.4,5.1c.8,5.3,6.3.5,5.7-3.5-1.9-1.3-6.5-.1-5.7,3.5Zm13.5-9.9c1.1.4.4,3.1.5,4.1h2.7c1.8,1.2-1.8,1.2-2.7,1.2s.8,11.5-.9,7.5c0-1.3-.1-6-.1-7.5-1.5,0-4.2-.1-2.5-1.2l2.5.2v-3.4c0-.5-.1-.9.5-.9Zm7,.3a.6.6,0,0,1,.6.5h0a1,1,0,0,1-.4.5c-.8.2-.9-1.2-.2-1.2Zm.2,3.3c1.1,0,.4,8.3.7,8.9s-1,.6-1.1-.2-.8-8.8.4-8.7Zm4.7.7c.3,0,.5.9.7,2.5h.1c3.4-6,8-.2,7.3,4.6s-1.6,1.4-.9-.4c-.4-9.8-7.1-5.3-6.6,1.8-.1.2-.2.2-.4.3h0c-1.2-.2-.5-4.4-.5-5.5s-1-3,.4-3.3Zm16,.3c.1.1,2.2.1,2.2.8s.3,2.6.1,3.7c.4,6-.9,11.2-6.6,7.3,0-.1,0-.2-.1-.2s.3-.5.7-.6c3.7,2.4,5.1.6,5-3.9h0c-6.8,6.4-8.6-7.3-1.1-7.1Zm-3.9,5.3c0,3.2,3.6,3.2,4.7.1.5-.6.3-3.2.3-4-2.4-1.5-5.2,1.7-5,3.9Zm13.3-10a69.4,69.4,0,0,0,7.9.1h0c2.4,1.5-3.2,1.1-3.7,1.2.3,3.2,0,8.7.2,12-.4.9-1.2.3-1.1-1.2s.1-8.6-.1-10.7c-2.6,0-4.7-.2-3.1-1.2Zm12,.3a.6.6,0,0,1,.5.6.5.5,0,0,1-.4.5c-.8.3-.9-1.1-.1-1.1Zm.1,3.4c1.1-.1.5,8.2.7,8.8s-.9.6-1-.2-.8-8.8.3-8.7Zm4.6.5c.3,0,.5.8.7,2.5h.1c2.1-3.4,4.8-3.6,6.7.1,7.3-8.4,10.3,8.9,7.3,6.5,1.2-5.2-3.8-11.3-6.8-5.1,0,.6.2,2.4.1,3s-.5,2.5-1.1,1.3c1.2-10.2-6.7-9.3-6.3.1a.5.5,0,0,1-.4.2h0c-1.2-.1-.6-4.4-.6-5.5s-.9-2.9.4-3.2Zm22.1-.4c5.4.3,2.2,5.8-2.2,4.9,1.3,7.7,6.4,0,7,2-6,7.8-12.3-4.9-4.8-6.9Zm-2.2,3.6c1.6.7,4.4-.5,4-1.7s-4-1.1-4,1.7Zm11.1-9.3c1.2,3.6.2,8.4,1.1,14.1.2.8-1,1.3-1,.2s-1.8-13.4-.1-14.2Zm7.7,5.7c5.4.3,2.3,5.8-2.1,4.9,1.2,7.7,6.4,0,6.9,2-6,7.8-12.3-4.9-4.7-6.9Zm-2.1,3.7c1.6.7,4.3-.5,3.9-1.8s-4-1.1-3.9,1.7Zm13.8-3.1c2-.3,4,1.1,2.5,1.8-1.2-1.2-5.2-1.2-5.2,1s5.4-.5,6.4,2.5c.9,4.5-8.9,4.4-7,.3a.6.6,0,0,1,.8.4h0a.8.8,0,0,1-.1.4c.4,1.2,1.5,1.2,2.5,1.2s4.3-2.9,1-2.8c-5.4,1.6-6.6-4.8-.8-4.8Zm10.6,0c2-.3,4.1,1.1,2.5,1.8-1.1-1.2-5.3-1.2-5.3,1s5.4-.5,6.4,2.5c1,4.5-8.9,4.4-6.9.3a.6.6,0,0,1,.8.4h0c0,.1-.1.2-.1.4s1.4,1.2,2.5,1.2,4.3-2.9,1-2.8c-5.4,1.6-6.6-4.8-.9-4.8Zm11.4-6.3,4.8.3a.6.6,0,0,1,.5.6l-.3.4h-.1l-4.5-.2c-.2,2.1.1,7,.3,6.7l3.3-.2c1.4,1.5-2.4,1.1-3.3,1.2.7,5.9-1,5.2,5.4,4.7,2.2,1.6-3.6,1.1-4.6,1.3-2.7-1.3-1-3.7-2.1-9.3a36.9,36.9,0,0,1,0-4.7c-.1-.4-.1-.8.6-.8Zm10.9,0c1.2,3.6.2,8.4,1.1,14.1.3.8-.9,1.3-1,.2s-1.7-13.4,0-14.2Zm7.8,5.7c5.3.3,2.2,5.8-2.2,4.9,1.3,7.7,6.4,0,6.9,2-5.9,7.8-12.3-5-4.7-6.9Zm-2.2,3.7c1.6.7,4.3-.5,3.9-1.8s-3.9-1-3.9,1.8Zm14.9-3c.1.1,2.2.2,2.2.8s.2,2.7,0,3.7c.4,6-.8,11.2-6.6,7.4v-.3c0-.3.2-.5.6-.5,3.8,2.4,5.1.5,5-4h0c-6.8,6.5-8.5-7.1-1.1-7.1Zm-3.9,5.4c0,3.2,3.6,3.1,4.7.1.5-.7.3-3.3.3-4-2.4-1.5-5.2,1.7-5,3.9Zm13.5-5.1c1.9,0,3.4.5,3.6,1.8s1.4,5.4-.1,6.6-.5-1.8-.9-2.3c-6.5,7.7-10.4-6-2.5-6.1Zm-3.5,5c.8,5.4,6.3.6,5.8-3.5-2-1.3-6.5-.1-5.7,3.5Zm11.4-5.5c.4,0,.6.8.7,2.5h.1c3.5-6,8-.2,7.4,4.6s-1.6,1.4-1-.4c-.4-9.8-7.1-5.3-6.5,1.8a.3.3,0,0,1-.3.3h0c-1.2-.3-.6-4.5-.6-5.6s-.9-3,.4-3.3Zm14.8,1c1.7.3,3.1.8,1.9,1.6-4.1-2.7-8.3,7.1,1.6,4.9,1,.3.3,1.2-.9,1.1-6.3,1.9-8.7-5.5-2.6-7.6Zm10.4-1.4c5.3.3,2.2,5.7-2.2,4.9,1.3,7.7,6.4,0,7,2-6,7.7-12.3-5-4.8-7Zm-2.2,3.7c1.6.7,4.4-.5,4-1.8s-4-1.1-4,1.7Z"/><path d="M279.2,224.1c-1.7,1.7-8.9,11.1-16.9,11.1h-8.2a11,11,0,0,0,2.2-2.1c3.7-5.7-.9-10.5-4.7-9.1s-2.9,6.4.1,6.3a1.9,1.9,0,0,0,1.8-1.1c.4-.8-.4-1.6-.6-.9a1.5,1.5,0,0,1-1.8,1h0c-.8-.1-1.2-1-.9-2.2.6-3.2,5.1-1.8,5.7.3,1.6,5.2-3.5,7.8-6.9,7.8H150.4c-1.2,0-4.6-.8-6.2-2.9a4.4,4.4,0,0,1-.1-5.9c1.6-1.7,5-1.8,4.9,1.1s-2.7.2-3.1.9,1.8,2.9,3.5,1.2,1.5-4.4-1.3-5.4-7.1,2.8-6.1,6.3a7.8,7.8,0,0,0,3.4,4.7H137c-8.6,0-16.6-10.8-16.6-10.8-7.4,7-16.2,11.1-20.4,11.1v1.1c4.1,0,13.7,4.1,20,11.1,1.8-1.7,9-11.1,17-11.1h8.2a8.8,8.8,0,0,0-2.2,2.1c-3.8,5.7.9,10.5,4.7,9.1s2.8-6.3-.1-6.3a2.1,2.1,0,0,0-1.9,1.1c-.4.8.4,1.5.6.8a1.4,1.4,0,1,1,2.5,1.1h0c-.7,3.1-5,1.8-5.6-.2-1.6-5.2,3.5-7.9,6.9-7.9H249a9.6,9.6,0,0,1,6.3,3,4.3,4.3,0,0,1,0,5.8c-1.6,1.8-5.1,1.9-5-1s2.7-.3,3.1-1-1.7-2.8-3.5-1.2-1.5,4.5,1.3,5.5,7.2-2.8,6.2-6.4a8.1,8.1,0,0,0-3.4-4.7h8.2c8.7,0,16.7,10.9,16.7,10.9,7.4-7.1,16.2-11.2,20.4-11.2v-1C295.3,235.2,285.6,231,279.2,224.1ZM119.9,245.5a38.3,38.3,0,0,0-14.6-9.6,37.7,37.7,0,0,0,14.7-9.5l3.1,3.5c-1.6,2.2-6.7,6-6.7,6s6,4.1,6.9,5.9Zm4.4-4.6a21,21,0,0,0-5.7-5l5.7-5c1.8,1.3,4.6,3.8,7.5,5C128,237.7,124.8,240.7,124.3,240.9Zm150.9,0c-1.9-1.3-4.9-3.8-7.7-5,3.8-1.7,6.7-4.6,7.4-4.8a20.3,20.3,0,0,0,5.7,4.8Zm4.1,4.2-3-3.4c1.7-2.2,6.5-5.8,6.5-5.8s-5.9-4.1-6.9-5.9l3.5-3.6a37.7,37.7,0,0,0,14.5,9.5,40.2,40.2,0,0,0-14.6,9.2Z"/></g></svg>