<svg id="Layer_1" data-name="Layer 1" xmlns="http://www.w3.org/2000/svg" viewBox="0 0 74.1 83.91"><defs><style>.cls-1{fill:#99897a;}.cls-2{fill:#726658;}.cls-3{fill:#e5e5e5;}.cls-4{fill:#ff7f00;}.cls-5{fill:#594a42;}.cls-6{fill:#9b8579;}.cls-7{fill:#d12f42;}.cls-8{fill:#be1e2d;}.cls-9{fill:#fbb040;}.cls-10{fill:#dcc172;}.cls-11{fill:#f9ed32;}</style></defs><title>on-time-delivery</title><rect class="cls-1" x="38.89" y="4.18" width="5.4" height="3.72"/><rect class="cls-2" x="36.39" width="10.56" height="4.59"/><path class="cls-2" d="M600,1215.13A32.43,32.43,0,1,1,567.54,1183,32.26,32.26,0,0,1,600,1215.13Z" transform="translate(-525.87 -1175.63)"/><path class="cls-3" d="M595.41,1215.13a27.87,27.87,0,1,1-27.87-28.06A28,28,0,0,1,595.41,1215.13Z" transform="translate(-525.87 -1175.63)"/><rect class="cls-2" x="40.61" y="13.66" width="1.95" height="1.95"/><rect class="cls-2" x="554.06" y="1192.66" width="1.95" height="1.95" transform="translate(-1048.26 -738.29) rotate(-29.99)"/><polygon class="cls-2" points="21.43 26.78 20.45 28.47 18.77 27.5 19.74 25.81 21.43 26.78"/><rect class="cls-2" x="541.7" y="1214.24" width="1.95" height="1.95" transform="matrix(0, -1, 1, 0, -1199.27, 580.33)"/><rect class="cls-2" x="545.08" y="1226.66" width="1.95" height="1.95" transform="translate(-1066.71 -737.88) rotate(-30.01)"/><rect class="cls-2" x="554.21" y="1235.73" width="1.95" height="1.95" transform="translate(-1319.27 -76.75) rotate(-59.99)"/><rect class="cls-2" x="40.78" y="63.39" width="1.95" height="1.95"/><rect class="cls-2" x="579.07" y="1235.64" width="1.95" height="1.95" transform="matrix(0.87, -0.5, 0.5, 0.87, -1066.57, -719.78)"/><rect class="cls-2" x="588.14" y="1226.51" width="1.95" height="1.95" transform="translate(-1294.44 -50.37) rotate(-60.06)"/><rect class="cls-2" x="65.57" y="38.44" width="1.95" height="1.95"/><rect class="cls-2" x="588.06" y="1201.65" width="1.95" height="1.95" transform="translate(-1047.53 -721.08) rotate(-29.94)"/><rect class="cls-2" x="578.92" y="1192.58" width="1.95" height="1.95" transform="translate(-1269.55 -76.88) rotate(-59.99)"/><path class="cls-4" d="M586.92,1204.09l.11-.08a22.36,22.36,0,0,0-19.49-11.44h-.09v21.67Z" transform="translate(-525.87 -1175.63)"/><path class="cls-2" d="M566.55,1211.7l20.37-7.61L569,1216.46A2.71,2.71,0,1,1,566,1212,2.38,2.38,0,0,1,566.55,1211.7Z" transform="translate(-525.87 -1175.63)"/><path class="cls-1" d="M584.67,1205.2l-18.22,7a1.67,1.67,0,0,0-1,2.33,1,1,0,0,0,1.33.5Z" transform="translate(-525.87 -1175.63)"/><path class="cls-5" d="M526.58,1253.54H528a6.34,6.34,0,0,1,0-.76,7.91,7.91,0,0,1,.15-1.55h-1.48Z" transform="translate(-525.87 -1175.63)"/><path class="cls-6" d="M559.28,1243h-32.7v8.27h1.48a8.16,8.16,0,0,1,16,0h15.2Z" transform="translate(-525.87 -1175.63)"/><path class="cls-5" d="M544.08,1251.23a7.91,7.91,0,0,1,.15,1.55c0,.26,0,.51,0,.76h15.08v-2.31Z" transform="translate(-525.87 -1175.63)"/><polygon class="cls-7" points="51.4 54.7 34.31 54.7 34.31 67.33 60.71 67.33 55.35 66.31 51.4 54.7"/><path class="cls-8" d="M560.18,1253.54h3.09c0-.25,0-.5,0-.76a8,8,0,1,1,16.07,0c0,.26,0,.51,0,.76h7.3V1243H560.18Z" transform="translate(-525.87 -1175.63)"/><path class="cls-9" d="M588.41,1245.93c0-1-.55-1.91-1.22-1.91v3.83C587.86,1247.85,588.41,1247,588.41,1245.93Z" transform="translate(-525.87 -1175.63)"/><path class="cls-5" d="M542.83,1252.78a6.76,6.76,0,1,1-6.76-6.76A6.76,6.76,0,0,1,542.83,1252.78Z" transform="translate(-525.87 -1175.63)"/><path class="cls-10" d="M539.45,1252.78a3.38,3.38,0,1,1-3.38-3.38A3.38,3.38,0,0,1,539.45,1252.78Z" transform="translate(-525.87 -1175.63)"/><path class="cls-5" d="M578,1252.78a6.76,6.76,0,1,1-6.76-6.76A6.76,6.76,0,0,1,578,1252.78Z" transform="translate(-525.87 -1175.63)"/><path class="cls-10" d="M574.65,1252.78a3.38,3.38,0,1,1-3.38-3.38A3.38,3.38,0,0,1,574.65,1252.78Z" transform="translate(-525.87 -1175.63)"/><polygon class="cls-3" points="50.31 66.31 39.6 66.31 39.6 56.74 47.25 56.74 50.31 66.31"/><polygon class="cls-3" points="55.35 66.31 52.71 65.74 49.68 56.74 52.05 56.63 55.35 66.31"/><rect class="cls-5" x="60.71" y="67.33" width="0.61" height="10.59"/><path class="cls-5" d="M567.54,1243.47a.35.35,0,0,1-.35.35h-2.33a.35.35,0,0,1-.35-.35h0a.35.35,0,0,1,.35-.35h2.33a.35.35,0,0,1,.35.35Z" transform="translate(-525.87 -1175.63)"/><path class="cls-11" d="M582.84,1244.69a.44.44,0,0,1-.46.42h0a.45.45,0,0,1-.46-.42v-.15a.45.45,0,0,1,.46-.42h0a.44.44,0,0,1,.46.42Z" transform="translate(-525.87 -1175.63)"/><rect class="cls-8" y="72.62" width="0.71" height="2.98"/><rect class="cls-4" x="0.71" y="50.76" width="32.7" height="16.57"/></svg>