<svg xmlns="http://www.w3.org/2000/svg" viewBox="0 0 100 127" fill="#d92126"><path d="M93,110.5c1.3,0,1.5,0,1.5-1.5l-.3-75.5h-22c-3.4,0-5.6-2-5.6-5.7V5.7H17c-.7,0-1,.3-1,1v20.7h-5.6V6c0-3.3,2.6-6,6-6h51c1.3,0,2.4.5,3.3,1.4l27.3,27.3c2,2,2,3.7,2,4.6v76c0,3.3-2.3,6.4-5.3,6.4h-29l4.5-5.3,22.8.1Z"/><path d="M55.5,29.4c2.3,0,3.6,1.3,3.6,3.6v24c0,2-1.3,3.6-3.6,3.6H3.6c-2,0-3.6-1.4-3.6-3.5v-24.4c0-2,1.4-3.5,3.5-3.5,0,0,52,.2,52,.2ZM29,55c2,0,3.7-.4,5-1.5,3-2,4-4.5,4-8,.3-6-3.7-10-9.6-10h-5.6v19.5h6.2ZM14.3,48c3,0,5-2,5.6-4.6,1-3-.4-6-3-7-1-.4-2-.6-3-.6h-7.4v19.5h4v-7.3h3.8ZM51.6,47v-4h-6.3v-4h7v-4h-11v19.5h4v-7.5h6.3Z"/><polygon points="35.6 98 46.4 98 46.4 76 64 76 64 98 75 98 55.3 127 35.6 98"/><path d="M45,116h-28.4c-3.4,0-6.3-2.7-6-6v-47h5.6v46c0,1,.3,1.3,1.3,1.3h24l3.5,5.7Z"/><path d="M27,39.3c2.4-.3,4,0,6,2.3,1.5,2,1.4,4.7,0,6.7-1.3,2-3.6,3-6,2.7v-11.7Z"/><path d="M10.3,39h3.6c2,0,3,2,2,4-.4.6-1,1-1.6,1h-4s0-5,0-5Z"/></svg>