<svg id="Layer_1" data-name="Layer 1" xmlns="http://www.w3.org/2000/svg" viewBox="0 0 348.68 383.95"><defs><style>.cls-1{fill:#040404;}.cls-2{fill:#c8c8c9;}.cls-3{fill:#dee2e5;}.cls-4{fill:#020303;}.cls-5{fill:#4ad093;}.cls-6{fill:#35b69d;}.cls-7{fill:#1e948d;}.cls-8{fill:#010303;}.cls-9{fill:#626974;}.cls-10{fill:#35b59c;}.cls-11{fill:#4f5763;}.cls-12{fill:#020202;}</style></defs><title>shield (1)</title><path class="cls-1" d="M7.9,166.42c-5-.71-6.33-2.1-6.68-6.84-2-27.67-.84-55.38-1-83.08,0-8.06,5.58-13.13,14.45-14.24a64.86,64.86,0,0,0,31-12.1c12.58-9.26,20.68-21.42,23.07-37,1-6.72,5.31-10.57,11.18-13.11H268.15c7.74,2.4,10.73,8,12.46,15.69,5.48,24.48,21.94,38.5,45.46,45a71.2,71.2,0,0,0,8.82,1.6c8.85,1.3,13.72,6.73,13.77,15.72q.1,18.9,0,37.82c0,14.47.32,29-1,43.4-.42,4.49-1.53,5.87-5.91,6.8-4.39-1.36-5.55-3.13-5.09-7.71.2-2,.41-4,.52-6,1.36-23.85.4-47.72.66-71.58.08-6.76-.16-7-6.92-8A75.29,75.29,0,0,1,296,58.42c-14.26-10.66-23.52-24.6-26.5-42.35-.64-3.81-2.38-5.45-6.27-5.1-3.09.28-6.22.19-9.34.26-.74-.07-1.48-.21-2.22-.21q-83.43,0-166.85-.08c-4.09,0-5,2.19-5.58,5.46a62.32,62.32,0,0,1-14,30.21C52.42,62,35.74,70.46,16.05,73.12c-4,.54-5.21,2.34-5.17,6.15.14,12.74,0,25.49,0,38.24,0,14-.34,28,1.3,41.94C12.68,163,10.9,165.09,7.9,166.42Z" transform="translate(-0.03 -0.05)"/><path class="cls-1" d="M170.65,384c-12.75-7-25.89-13.26-38.21-21C75,326.82,33.65,277.7,12.25,212.69c-2.18-6.62-3.84-13.41-5.67-20.14-1-3.63-.5-6.74,3.54-8.28,4.94,0,6,1,7.37,6.54,11.82,49.6,37.09,91.38,73.6,126.63,23.81,22.92,51.39,40.2,80.81,54.81a5.31,5.31,0,0,0,5.31-.17c3.39-1.84,6.84-3.58,10.26-5.37,14.24-7.5,28.26-15.35,41-25.29a5.82,5.82,0,0,0,3.07-2.27h0c1-.67,2.12-1.27,3.09-2,48.7-37.93,82-86,96.7-146.43,1.22-5,2.48-6.07,7.32-6.21,4,1.8,4.35,4.86,3.4,8.71C326.55,256.55,291.6,307,240.36,346.57c-18.31,14.13-38.46,25.19-59,35.68-1.26.65-2.61,1.15-3.92,1.72Z" transform="translate(-0.03 -0.05)"/><path class="cls-2" d="M338.66,184.47c-4.84.14-6.1,1.17-7.32,6.21-14.66,60.42-48,108.5-96.7,146.43-1,.76-2.06,1.36-3.09,2a2.08,2.08,0,0,1,.65-2c2.84-2.61,5.76-5.14,8.52-7.84a286.66,286.66,0,0,0,28.69-32.42,259.39,259.39,0,0,0,38.13-70.35,250,250,0,0,0,12.14-50.66c.5-3.74,2.41-7.72.16-11.59-.21-2.81.49-5.52.91-8.26.09-.06.27-.15.26-.19a2.94,2.94,0,0,0-.23-.51c.2-3,.44-6,.61-8.93.81-14.07.41-28.16.54-42.24a39.18,39.18,0,0,0-1.39-11.8c1.86-2.47.73-5.3.8-7.93a8,8,0,0,0-6.67-7.86c-2.31-.44-4.65-.73-6.95-1.23a61.59,61.59,0,0,1-32.4-18.15c-1.42-1.54-2.53-3.9-5.23-3.82l-.49-.66c.11-1.38-.12-2.48-1.89-2.35l-.36-.63c0-1.17.19-2.46-1.65-2.32l.07.07c.14-1.22.27-2.42-1.55-2.34l.07.07c.08-1.83.09-3.62-2.4-3.85-.56-.2-.62-.68-.64-1.17.36-1.44-.3-2.64-.81-3.92-3.19-8.06-6.37-16.14-6.54-25,3.12-.07,6.25,0,9.34-.26,3.89-.35,5.63,1.29,6.27,5.1,3,17.75,12.24,31.69,26.47,42.42A75.22,75.22,0,0,0,330.9,72.86c6.76,1,7,1.19,6.92,8-.26,23.86.7,47.73-.66,71.58-.11,2-.32,4-.52,6-.46,4.58.7,6.35,5.09,7.71Z" transform="translate(-0.03 -0.05)"/><path class="cls-3" d="M319.84,164.25c2.25,3.87.34,7.85-.16,11.59a250,250,0,0,1-12.14,50.66,259.39,259.39,0,0,1-38.13,70.35,285.59,285.59,0,0,1-28.69,32.4c-2.76,2.7-5.68,5.23-8.52,7.84a2.08,2.08,0,0,0-.65,2h0c-1.81-.3-3.07.13-3.07,2.27-12.73,9.94-26.75,17.79-41,25.29-3.42,1.79-6.87,3.53-10.26,5.37a5.3,5.3,0,0,1-5.32.23c-29.44-14.6-57-31.88-80.83-54.82-36.51-35.25-61.78-77-73.6-126.63-1.32-5.52-2.43-6.49-7.37-6.54-.22-6-2.66-11.74-2.24-17.83,3-1.33,4.8-3.44,4.39-7-1.64-13.94-1.28-28-1.3-41.94,0-12.75.09-25.5,0-38.24,0-3.81,1.18-5.61,5.17-6.15C35.81,70.44,52.49,62,65.32,46.59a62.32,62.32,0,0,0,14-30.21c.53-3.27,1.49-5.47,5.58-5.46q83.42.15,166.85.08c.74,0,1.48.14,2.22.21.17,8.86,3.35,16.94,6.54,25,.51,1.28,1.17,2.48.81,3.92-.92-1.62-1.88-3.21-2.74-4.86-3.35-6.45-8.6-9.9-15.92-9.9H106.22c-7.17,0-12.54,3.29-15.69,9.64C79.27,57.74,61.67,73.51,38.38,83.15,31,86.15,27,91.75,27,99.62c0,18-.65,36,1,53.94C31.64,192.2,44.38,227.63,65.58,260c25,38.24,58.34,67.3,98.35,89.06,7.17,3.9,13.73,4,20.87.12a293.34,293.34,0,0,0,48-32.46c36.31-30.63,62.78-68,77.79-113.3C314.77,190.67,317.46,177.49,319.84,164.25Z" transform="translate(-0.03 -0.05)"/><path class="cls-2" d="M228.48,341.41c0-2.14,1.26-2.57,3.07-2.27A5.82,5.82,0,0,1,228.48,341.41Z" transform="translate(-0.03 -0.05)"/><path class="cls-4" d="M319.84,164.25c-2.38,13.25-5.07,26.43-9.32,39.24-15,45.27-41.48,82.67-77.79,113.3a293.34,293.34,0,0,1-48,32.46c-7.14,3.92-13.7,3.78-20.87-.12-40-21.76-73.34-50.82-98.35-89.06C44.34,227.65,31.6,192.25,28,153.58c-1.68-18-1-36-1-53.94,0-7.87,4-13.43,11.36-16.47C61.63,73.53,79.23,57.76,90.49,35c3.15-6.35,8.52-9.64,15.69-9.64H242.62c7.32,0,12.57,3.45,15.92,9.9.86,1.65,1.82,3.24,2.74,4.86,0,.49.08,1,.64,1.17a10.51,10.51,0,0,0,2.4,3.85l-.07-.07a4.29,4.29,0,0,0,1.52,2.34l-.07-.07,1.65,2.32.36.63,1.89,2.35.49.66A93.29,93.29,0,0,0,307.9,81.91c5.32,2.26,10,5.07,12.68,10.4a39.12,39.12,0,0,1,1.32,11.8c-.13,14.08.27,28.17-.54,42.24-.17,3-.41,6-.61,8.93a.73.73,0,0,0,0,.7C320.33,158.72,319.63,161.43,319.84,164.25Zm-110.2,156a1.12,1.12,0,0,0,1.44-.66l0-.08.83-.62c.84-.51,1.74-.94,2.53-1.53,28.35-21.3,51.55-47.15,68.7-78.26a220.4,220.4,0,0,0,27.08-90c1.11-14.11.5-28.22.64-42.34.12-11.85.78-10.93-9.91-15.87-23-10.63-40.52-27.13-51.81-50-1.33-2.64-3.27-4.59-6.27-4.64-4.86-.11-9.73.11-14.59.19-18-.44-36-.35-54,0q-34.06-.19-68.17-.19c-3,0-5,1.72-6.37,4.45C87.48,65.34,68.27,82.53,42.9,93c-3.57,1.48-5.14,3.89-5.09,7.8.14,11.12,0,22.25.08,33.37a214.46,214.46,0,0,0,20.35,90.25C82.3,275.91,120.8,313.5,170.47,340.19c1.2.64,2.42,1.36,3.89,1a4.77,4.77,0,0,0,3.55-.81C189,334.34,200,328.42,209.64,320.25Z" transform="translate(-0.03 -0.05)"/><path class="cls-3" d="M320.54,92.31c-2.7-5.33-7.36-8.14-12.68-10.4a93.26,93.26,0,0,1-37.77-28.58c2.7-.06,3.76,2.28,5.23,3.81a61.59,61.59,0,0,0,32.4,18.11c2.3.5,4.64.79,6.95,1.23a8,8,0,0,1,6.67,7.86C321.27,87,322.4,89.84,320.54,92.31Z" transform="translate(-0.03 -0.05)"/><path class="cls-3" d="M264.29,45.17a10.49,10.49,0,0,1-2.39-3.85C264.38,41.55,264.37,43.34,264.29,45.17Z" transform="translate(-0.03 -0.05)"/><path class="cls-3" d="M265.77,47.44a4.34,4.34,0,0,1-1.55-2.34C266,45,265.9,46.25,265.77,47.44Z" transform="translate(-0.03 -0.05)"/><path class="cls-3" d="M267.35,49.69l-1.65-2.32C267.54,47.25,267.37,48.52,267.35,49.69Z" transform="translate(-0.03 -0.05)"/><path class="cls-3" d="M269.6,52.67l-1.89-2.35C269.48,50.19,269.71,51.25,269.6,52.67Z" transform="translate(-0.03 -0.05)"/><path class="cls-3" d="M320.75,156a.73.73,0,0,1,0-.7,2.94,2.94,0,0,1,.23.51A2.49,2.49,0,0,1,320.75,156Z" transform="translate(-0.03 -0.05)"/><path class="cls-5" d="M174.39,341.18c-1.47.37-2.69-.35-3.89-1C120.83,313.49,82.33,275.9,58.27,224.44A214.37,214.37,0,0,1,37.9,134.25c-.09-11.12.06-22.25-.08-33.37,0-3.91,1.52-6.32,5.09-7.8,25.34-10.5,44.55-27.69,56.84-52.35,1.36-2.73,3.34-4.45,6.37-4.45q34.11,0,68.23.15V56.87a10.49,10.49,0,0,1-1.11.13c-25.31,1-45.47,17.8-50.93,42.42-2,9.25-1,18.67-1.14,28-.14,8.94,0,8.94-8.75,9.06H112c-9.64.2-17.14,7.51-17.17,17.16q-.15,39.36,0,78.72a16.88,16.88,0,0,0,15.07,16.82,68.39,68.39,0,0,0,8.59.32q27.91.13,55.84.2Q174.4,295.44,174.39,341.18Z" transform="translate(-0.03 -0.05)"/><path class="cls-6" d="M174.39,341.18V249.66c1.37,0,2.74-.16,4.11-.16h57c11.2,0,18.85-7,18.92-17.86q.26-38.79,0-77.58c-.06-10.4-7.59-17.47-17.94-17.6a46,46,0,0,0-5.25,0c-2.48.25-3.22-.71-3.17-3.17.15-7.24.08-14.49.05-21.73-.05-9.79-2-19.12-7.08-27.59-10.53-17.58-26.18-26.52-46.62-27.16V36.37c18-.31,36-.4,54,0,1.3,2.41,2.64,4.8,3.89,7.23a105.8,105.8,0,0,0,18.19,25.9,105.7,105.7,0,0,0,37,24.72c5.29,2.11,7.31,6,7.69,11.24.17,2.24,0,4.5,0,6.75,0,22.29.6,44.58-3.69,66.66A234.87,234.87,0,0,1,258.82,261a293.44,293.44,0,0,1-44.2,53.92c-1.12,1.08-2.73,1.93-2.65,3.87l-.83.62a1.46,1.46,0,0,0-1.47.74c-9.62,8.21-20.69,14.13-31.7,20.16A4.81,4.81,0,0,1,174.39,341.18Z" transform="translate(-0.03 -0.05)"/><path class="cls-7" d="M211.9,318.85c-.08-1.94,1.53-2.79,2.65-3.87a293.44,293.44,0,0,0,44.2-53.92,234.87,234.87,0,0,0,32.67-82.14c4.29-22.08,3.66-44.37,3.69-66.66,0-2.25.14-4.51,0-6.75-.38-5.19-2.4-9.13-7.69-11.24a105.7,105.7,0,0,1-37-24.72,105.92,105.92,0,0,1-18.2-25.9c-1.25-2.43-2.59-4.82-3.89-7.23,4.86-.08,9.73-.3,14.59-.19,3,.07,4.92,2,6.25,4.66,11.29,22.84,28.8,39.34,51.81,50,10.69,4.94,10,4,9.91,15.87-.14,14.12.47,28.23-.64,42.34a220.4,220.4,0,0,1-27.08,90c-17.15,31.11-40.35,57-68.7,78.26C213.68,317.91,212.78,318.34,211.9,318.85Z" transform="translate(-0.03 -0.05)"/><path class="cls-7" d="M209.64,320.25a1.46,1.46,0,0,1,1.47-.74,1.13,1.13,0,0,1-1.39.77Z" transform="translate(-0.03 -0.05)"/><path class="cls-8" d="M174.39,56.82C194.83,57.46,210.48,66.4,221,84c5.08,8.47,7,17.8,7.08,27.59,0,7.24.1,14.49-.05,21.73,0,2.46.69,3.42,3.17,3.17a46,46,0,0,1,5.25,0c10.35.13,17.88,7.2,17.94,17.6q.27,38.77,0,77.58c-.07,10.81-7.72,17.83-18.92,17.86-19,.05-38,0-57,0-1.37,0-2.74.11-4.11.16l-55.84-.2a68.39,68.39,0,0,1-8.59-.32,16.87,16.87,0,0,1-15-16.83q-.14-39.36,0-78.72a17.06,17.06,0,0,1,17.17-17.16h.38c8.72-.12,8.61-.12,8.75-9.06.14-9.34-.91-18.76,1.14-28C127.8,74.76,148,58,173.27,57A10.38,10.38,0,0,0,174.39,56.82Zm-42,79c0,.54.23.64.68.53h41.28c13.35,0,26.71,0,40.06.19,2.2,0,2.72-.77,2.7-2.82-.11-8.36.16-16.74-.11-25.09-.73-22.69-20.31-41.18-42.63-40.46-19.39-.52-37.62,14-41.21,33.36-2.06,11.28-.8,22.81-.73,34.25Zm93.73,102.53c3.49.05,7,.21,10.47.11,4.16-.11,6.78-2.7,6.79-6.87q.08-38.75,0-77.49c0-3.65-1.88-5.93-5.44-6.53a30.34,30.34,0,0,0-11.82.08c-1.49-.15-3-.42-4.47-.42H114.46c-6.5,0-8.53,2.15-8.53,8.54v73.84c0,7,1.87,8.88,8.86,8.88H221.63C223.12,238.49,224.62,238.39,226.12,238.35Z" transform="translate(-0.03 -0.05)"/><path class="cls-9" d="M226.12,238.35c-1.5,0-3,.14-4.49.14H114.81c-7,0-8.86-1.88-8.86-8.88V155.77c0-6.39,2-8.53,8.53-8.54q53.6-.06,107.19,0a44.46,44.46,0,0,1,4.47.42,40.62,40.62,0,0,1,1.55,12.16c-.1,20.63-.06,41.25,0,61.88C227.66,227.25,227.9,232.91,226.12,238.35Zm-57-31.19v5.62c0,4.17,2.09,6.78,5.3,6.84,3.37.06,5.67-2.65,5.76-6.91.07-3,.13-6,0-9s.39-5.41,3.14-7.68c5.52-4.59,5.31-13.5.18-18.31a12.85,12.85,0,0,0-18.17.43l-.25.27c-4.83,5.36-4.37,13.94,1.38,18.28a6,6,0,0,1,2.7,6c-.12,1.51,0,3,0,4.51Z" transform="translate(-0.03 -0.05)"/><path class="cls-10" d="M174.41,68.12c22.32-.72,41.9,17.77,42.63,40.46.27,8.35,0,16.73.11,25.09,0,2-.5,2.84-2.7,2.82-13.35-.14-26.71-.15-40.06-.19Q174.41,102.25,174.41,68.12Z" transform="translate(-0.03 -0.05)"/><path class="cls-5" d="M174.41,68.12V136.3h-41.3l-.68-.53c-.07-11.44-1.33-23,.77-34.3C136.79,82.1,155,67.6,174.41,68.12Z" transform="translate(-0.03 -0.05)"/><path class="cls-11" d="M226.12,238.35c1.8-5.44,1.54-11.06,1.54-16.66,0-20.63-.07-41.25,0-61.88a40.62,40.62,0,0,0-1.55-12.16,30.34,30.34,0,0,1,11.82-.08c3.56.6,5.44,2.88,5.44,6.53v77.49c0,4.17-2.63,6.76-6.79,6.87C233.1,238.56,229.61,238.4,226.12,238.35Z" transform="translate(-0.03 -0.05)"/><path class="cls-10" d="M132.43,135.78l.68.53C132.66,136.42,132.38,136.32,132.43,135.78Z" transform="translate(-0.03 -0.05)"/><path class="cls-12" d="M169.14,202.67a6,6,0,0,0-2.7-5.95c-5.75-4.34-6.21-12.92-1.38-18.28a12.85,12.85,0,0,1,18.15-.95l.27.25c5.13,4.81,5.34,13.72-.18,18.31-2.75,2.27-3.29,4.57-3.14,7.68s.09,6,0,9c-.09,4.26-2.39,7-5.76,6.91-3.21-.06-5.25-2.67-5.3-6.84C169.11,211.79,169.09,203.36,169.14,202.67Z" transform="translate(-0.03 -0.05)"/></svg>