<svg id="Layer_1" data-name="Layer 1" xmlns="http://www.w3.org/2000/svg" viewBox="0 0 79.66 78.83"><defs><style>.cls-1{fill:#0f303f;}.cls-2{fill:#2c5871;}.cls-3{fill:#fff;}.cls-4{fill:#fdc63a;}.cls-5{fill:#fda014;}.cls-6{fill:#03aab6;}.cls-7{fill:#4bcdd6;}</style></defs><title>safe-and-secure</title><path class="cls-1" d="M551.37,1186.37h-12.3v62.43h12.3a4.5,4.5,0,0,0,4.5-4.51v-53.42A4.5,4.5,0,0,0,551.37,1186.37Z" transform="translate(-522.26 -1178.17)"/><path class="cls-2" d="M526.76,1186.37a4.5,4.5,0,0,0-4.5,4.5v53.42a4.5,4.5,0,0,0,4.5,4.51h12.31v-62.43Z" transform="translate(-522.26 -1178.17)"/><rect class="cls-3" x="9.97" y="10.7" width="13.67" height="1.12"/><path class="cls-3" d="M539.07,1247.05a3.71,3.71,0,1,1,3.71-3.71A3.72,3.72,0,0,1,539.07,1247.05Zm0-6.61a2.9,2.9,0,1,0,2.9,2.9A2.91,2.91,0,0,0,539.07,1240.44Z" transform="translate(-522.26 -1178.17)"/><rect class="cls-4" x="1.63" y="14.97" width="15.34" height="44.24"/><rect class="cls-5" x="16.97" y="14.97" width="15.01" height="44.24"/><path class="cls-2" d="M548.17,1231.64a59.56,59.56,0,0,1-7.77-32,94.83,94.83,0,0,0,15.48-6c6.74-3.41,12.75-9.64,12.75-9.64v-5.87s-7.06,7.32-15,11.32a110.55,110.55,0,0,1-18.18,7,70,70,0,0,0,9.12,37.58c10.46,18.44,24,22.89,24,22.89v-5.88S557.06,1247.34,548.17,1231.64Z" transform="translate(-522.26 -1178.17)"/><path class="cls-1" d="M601.81,1196.53a110.83,110.83,0,0,1-18.19-7c-7.93-4-15-11.32-15-11.32V1184s6,6.23,12.76,9.64a94.54,94.54,0,0,0,15.47,6,59.49,59.49,0,0,1-7.76,32c-8.9,15.7-20.47,19.48-20.47,19.48V1257s13.6-4.45,24-22.89A70,70,0,0,0,601.81,1196.53Z" transform="translate(-522.26 -1178.17)"/><path class="cls-6" d="M589.1,1231.64a59.49,59.49,0,0,0,7.76-32,94.54,94.54,0,0,1-15.47-6c-6.75-3.41-12.76-9.64-12.76-9.64v67.08S580.2,1247.34,589.1,1231.64Z" transform="translate(-522.26 -1178.17)"/><path class="cls-7" d="M555.88,1193.68a94.83,94.83,0,0,1-15.48,6,59.56,59.56,0,0,0,7.77,32c8.89,15.7,20.46,19.48,20.46,19.48V1184S562.62,1190.27,555.88,1193.68Z" transform="translate(-522.26 -1178.17)"/><path class="cls-3" d="M582.13,1205a2.08,2.08,0,0,0-2.87.61L569,1221.41v7.47l0,.07,13.74-21.09A2.09,2.09,0,0,0,582.13,1205Z" transform="translate(-522.26 -1178.17)"/><path class="cls-3" d="M568.91,1221.47l-6.63-9.69a2.07,2.07,0,1,0-3.42,2.34L569,1228.88v-7.47Z" transform="translate(-522.26 -1178.17)"/></svg>