<svg  xmlns="http://www.w3.org/2000/svg" viewBox="0 0 32 31"><path d="M24.5,24.5a6,6,0,0,1-3,4,15,15,0,0,1-7,1m11-16a15,15,0,0,1,0,3m-24,0c1-6,6-10,13-10m13,7h-9c-1,0-5,3-5,3l1-7v-5a4,4,0,0,1,4-4h9a4,4,0,0,1,4,4v5A4,4,0,0,1,27,13.5Zm-9-9h9m-9,3h9m-9,3h9m-17,10c0,0,0,0,0,0s0,0-0,0-0,0-0-0S10,20,10,20Zm3,0c0,0,0,0,0,0s0,0-0,0-0,0-0-0S13,20,13,20Zm3,0c0,0,0,0,0,0s0,0-0,0-0,0-0-0S16,20,16,20Zm-12-5a1,1,0,0,1,1,1v8a1,1,0,0,1-1,1,1,1,0,0,1-1-1v-8A1,1,0,0,1,4.5,15.5Zm-1,9c-2,0-3-1-3-4s1-4,3-4m21,0v8a1,1,0,0,1-1,1c-1,0-1-0-1-1V16a1,1,0,0,1,1-1A1,1,0,0,1,24.5,16Zm0,8c2,0,3-1,3-4s-1-4-3-4M13,29h2v1h-2Z" fill="none" stroke="#fff"/></svg>