<svg xmlns="http://www.w3.org/2000/svg" viewBox="0 0 75.05 61.39" fill="#fff"><path d="M67.3,15.49c0,28.51-19.2,45.7-43.38,45.9A43.76,43.76,0,0,1,0,54.52a40.7,40.7,0,0,0,22.8-6.59A15.43,15.43,0,0,1,8.41,37.26a36.47,36.47,0,0,0,6.93,0A15.45,15.45,0,0,1,3,22.14H3A15.71,15.71,0,0,0,10,24.05a16.66,16.66,0,0,1-4.74-21,43.67,43.67,0,0,0,32,16,16,16,0,0,1-.47-3.52A15.36,15.36,0,0,1,63.39,4.93,32.88,32.88,0,0,0,73,1.31a15.62,15.62,0,0,1-6.76,8.52,31.92,31.92,0,0,0,8.84-2.45A17.79,17.79,0,0,1,67.3,15.49Z"/></svg>