<svg xmlns="http://www.w3.org/2000/svg" viewBox="0 0 29.5 32.5" fill="none" stroke="#7360f2" stroke-linecap="round"><path fill="#7360f2" stroke="none" d="M22,20.6a6.6,6.6,0,0,1-1.2,1.6,2.7,2.7,0,0,1-2,.5c-7-3-10-6.5-12.3-12.7a1.7,1.7,0,0,1,.2-2A16.2,16.2,0,0,1,8.4,6.6a1.2,1.2,0,0,1,1.4,0A25,25,0,0,1,12.2,10a1.5,1.5,0,0,1,0,1.3,10.4,10.4,0,0,1-1,1,1,1,0,0,0-.4,1,7.6,7.6,0,0,0,5,5,1,1,0,0,0,1-.3c.2-.2.4-.4.5-.7a1.2,1.2,0,0,1,1.6-.4c.3.2,3,2,3,2.2A1.5,1.5,0,0,1,22,20.6Z"/><path d="M15.2,8.4h0a5,5,0,0,1,5,5h0v0"/><path d="M15.7,10.5h0A2.3,2.3,0,0,1,18,13v0h0"/><path d="M15,6.45h0c8,.3,7.2,8,7.2,8"/><path d="M19.2,27.2a33,33,0,0,1-6.7.2L8.2,32a.5.5,0,0,1-.7,0h0a.5.5,0,0,1-0-.3v-5c-4-1.2-5.5-4-6.6-9a20,20,0,0,1,0-7.2c1.2-6.2,3-8.5,9.5-9.6a34,34,0,0,1,9,0c6,1,8.3,3.4,9.5,9.6a24,24,0,0,1,0,7.2C28,24,25.6,26,19.2,27.2Z"/></svg>