<svg xmlns="http://www.w3.org/2000/svg" viewBox="0 0 225 225"><path d="M112.37,2.5c144.57,0,149.12,222.1,0,220C-36.82,224.6-31.41,2.5,112.37,2.5Zm-15,83,40,27-40,27Z" fill="none" stroke="#fff" stroke-width="5"/><path d="M97.47,150.93a5,5,0,0,1,2.16.43,3.14,3.14,0,0,1,1.38,1.22,3.59,3.59,0,0,1,.5,1.94,4.49,4.49,0,0,1-.21,1.36,3.46,3.46,0,0,1-.67,1.2,3.12,3.12,0,0,1-1.19.84,4.4,4.4,0,0,1-1.79.32H95.94v4.26H94.37V150.93Zm.16,5.83a2.64,2.64,0,0,0,1.14-.23,2,2,0,0,0,.7-.56,2.29,2.29,0,0,0,.37-.73,2.31,2.31,0,0,0,.11-.69,2.21,2.21,0,0,0-.11-.72,1.67,1.67,0,0,0-.38-.69,1.83,1.83,0,0,0-.69-.51,2.3,2.3,0,0,0-1-.21H95.94v4.34Zm6.27-5.83h1.55V161h5.92v1.49h-7.43Zm8.8,11.57,5.06-12h.09l5,12.05h-1.77l-3.71-9.67,1.11-.72-4.26,10.34Zm3-4.38H120l.51,1.34h-5.27Zm11,.52-4.33-7.71h1.91l3.44,6.39h-.48l3.41-6.42h1.88l-4.32,7.71v3.89h-1.55Z" fill="#fff"/></svg>