<svg xmlns="http://www.w3.org/2000/svg" viewBox="0 0 355 384" fill="#42434d"><path fill="#fea964" d="M330.3,384H25c.4-12.5-1-25,2.2-37.5,6.6-25,78-43,103.8-45.5,5.8-.5,11-0,11.5-7.7L172.3,316c4.3,3.3,6.3,3.3,10.6,0l30.7-23.6c-0,7.2,1,8,8,8.2,9,.2,107.7,37.5,108.6,61.8C330.5,369.8,330.3,377,330.3,384Z"/><path fill="#4d4e59" d="M57.5,257.4c-6.6-10.4-9.8-22-11-34C44,201.4,50,181.6,62,163.3c8.8-13.6,12.7-28.8,12.8-45V80.4C75,43,104.5,8,141.6,1.4c2-.3,4.2,0,6-1.4h59.3c6,1.6,12,2.2,18,4.5C229.5,6.3,234.3,8,238.4,11c.2,1,.4,2.2.7,3.3,1.2,5.6-2,10.4-7.5,11-2.2.2-4.4-.5-6.6-.5-13.4-0-26.7,0-40-0a84.2,84.2,0,0,0-33,6,82.5,82.5,0,0,0-42.2,38C102,82.5,99.3,97.4,99.6,113c0,3,.3,6.2-.7,9.3-2.5,2-3.2,4.7-3.2,8,0,14,0,28.2,0,42.3-1,0-1,.7-1.5,1.4-1.6,3.2-2.7,6.7-4.6,9.8-7,11.4-13.8,22.7-16.8,36-2.2,9.8-1.7,19.8-1.8,29.7,0,6-5,9.5-10.6,8C59.6,257.2,58.5,256,57.5,257.4Z"/><path d="M269,288.4c-14.5-2.3-36.6-7.4-40-8.2a36.6,36.6,0,0,1-19-23,88,88,0,0,1-.8-14.2l2.3-1.2c30.6-15.2,47-39.8,48-74,.4-13,0-26,0-39,0-5-2-7.4-7-8-14-1.4-22.7-9.2-27.2-22.2-2.5-7.2-6.2-8.5-12.7-4.3a173.6,173.6,0,0,1-36.8,18.2,176,176,0,0,1-58.8,9.8c-6,.2-12-2-18-.2,1-3,.8-6.2.7-9.3-.3-15.6,2.4-30.5,10-44.3a82.5,82.5,0,0,1,42.2-38,84,84,0,0,1,33-6c13.4,0,26.7,0,40,0,2.2,0,4.5.8,6.6.5,5.6-.6,8.8-5.4,7.5-11-.2-1-.4-2.2-.7-3.3C259.3,23,272.2,40.8,278,64a81.6,81.6,0,0,1,2.2,20c0,11,0,22.2,0,33.3a84.5,84.5,0,0,0,14,48c11,16.6,16,34.8,14.6,54.6-1.7,24.6-12,45-30.7,61C275.2,283.7,272,286,269,288.4Z"/><path d="M126.5,280c-5.4,2-33,5.6-40.5,8.5-10.7-8-20.4-16.8-27.2-28.4-.5-.8-1-1.7-1.3-2.6,1-1.4,2-.2,3,0,5.7,1.5,10.5-2,10.6-8,0-10-.4-19.8,1.8-29.7,3-13.3,9.7-24.7,16.7-36,2-3,3-6.6,4.6-9.8.4-.7.6-1.3,1.5-1.4a75.8,75.8,0,0,0,3.5,19.3C107,216,123,232.8,146,243c.4,4.8-.3,9.5-.7,14.2C142.2,267.4,136.2,275.2,126.5,280Z"/><path fill="#febc7b" d="M142.4,293.3c-.5,7.6-5.7,7.2-11.5,7.7-25.7,2.4-97.2,20.6-103.8,45.5-3.3,12.4-1.8,25-2.2,37.5h-21c-3-2.4-4-5.5-3.8-9.5C.3,364.4-2,337.3,14,314c14-20.2,107-32,112.4-34,.7,1.8,2.4,2.4,3.7,3.5C134.3,286.8,138.7,289.5,142.4,293.3Z"/><path fill="#f9a157" d="M330.3,384c0-7,.2-14.2,0-21.4-.8-24.3-99.6-61.6-108.6-61.8-7.2-.2-8.2-1-8-8.2L229,280.3c3.5.8,101.4,7.7,115.2,35.5,14,28.2,11.2,65.7,8,68.3Z"/><path fill="#feead1" d="M126.5,280c9.6-4.8,15.6-12.5,18.8-22.7,1.3-0,2.4.5,3.5,1,13,5,26.4,6,40.2,4.4,7.2-.8,14-3.5,20.8-5.4a36.6,36.6,0,0,0,19,23L213.6,292.7l-30.7,23.5c-4.3,3.3-6.3,3.3-10.6,0l-30-23c-3.7-3.7-8-6.5-12-9.8C129,282.4,127.2,281.7,126.5,280Z"/><path fill="#fef2e3" d="M146,243c-23-10.3-39-27-46.8-51.2a75.8,75.8,0,0,1-3.5-19.3c0-14,0-28.2,0-42.3,0-3.2.7-6,3.2-8,6-1.8,12,.4,18,.2,4.7,2.7,8,6,8.5,12.2.5,6,.4,11.7.4,17.5,0,7,.2,14.2,2,21,5.2,21,17.2,37.2,34.8,49.5a12.2,12.2,0,0,1,3,17h0a11,11,0,0,1-.8,1c-2.2,2.6-5,3.8-8,5.3C153,246,149.5,244,146,243Z"/><path fill="#feead1" d="M156.6,246c2.8-1.5,5.8-2.7,8-5.3a12.2,12.2,0,0,0-1-17.2c-.3-.3-.6-.5-1-.8-17.5-12.3-29.5-28.5-34.8-49.5-1.7-7-2-14-2-21.09,0-5.8,0-11.6-.4-17.5-.5-6-3.7-9.4-8.5-12.2a176,176,0,0,0,58.8-9.8,173.6,173.6,0,0,0,36.8-18.2c6.5-4.2,10.2-3,12.7,4.3,4.5,13,13.2,20.8,27.2,22.2,5,.5,7,2.8,7,8,0,13,.3,26-0,39-1,34.2-17.3,58.8-48,74L209,243a84.7,84.7,0,0,1-36.7,6C167,248.6,161.6,248.3,156.6,246Z"/><path fill="#fed5a6" d="M156.6,246c5,2.2,10.5,2.6,15.8,3a84.7,84.7,0,0,0,36.7-6,87.5,87.5,0,0,0,.7,14.2c-7,2-13.6,4.6-20.8,5.4-13.7,1.6-27.2.7-40.2-4.4-1.2-.5-2.2-1-3.5-1,.5-4.7,1-9.4.7-14.2C149.5,244,153,246,156.6,246Z"/></svg>